<?xml version="1.0" standalone="no"?>
<!DOCTYPE svg PUBLIC "-//W3C//DTD SVG 20010904//EN"
 "http://www.w3.org/TR/2001/REC-SVG-20010904/DTD/svg10.dtd">
<svg version="1.0" xmlns="http://www.w3.org/2000/svg"
 width="2121.000000pt" height="1193.000000pt" viewBox="0 0 2121.000000 1193.000000"
 preserveAspectRatio="xMidYMid meet">

<g transform="translate(0.000000,1193.000000) scale(0.100000,-0.100000)"
fill="#000000" stroke="none">
<path d="M15633 10383 c-23 -9 -14 -30 12 -30 18 0 25 5 25 18 0 19 -12 23
-37 12z"/>
<path d="M15554 10335 c-17 -14 -18 -15 0 -9 14 5 17 3 14 -12 -2 -13 -12 -19
-29 -19 -14 -1 -39 -11 -55 -24 -26 -20 -38 -22 -109 -19 -80 3 -80 3 -83 -23
-4 -37 37 -44 90 -16 39 21 40 22 54 2 12 -16 18 -18 34 -7 11 6 27 12 36 12
10 0 14 6 11 14 -5 12 -2 12 21 0 15 -8 35 -14 45 -14 18 0 24 -34 7 -45 -5
-3 -6 -13 -3 -23 4 -13 2 -13 -11 3 -16 20 -16 20 -36 -5 -11 -14 -20 -33 -21
-42 -1 -10 -2 -24 -3 -30 -1 -14 -56 -22 -56 -8 0 4 -7 11 -16 14 -11 4 -15 2
-11 -8 3 -8 -2 -21 -12 -30 -16 -15 -21 -15 -49 0 -17 8 -44 29 -59 45 -15 17
-39 35 -52 40 -19 8 -22 15 -18 37 6 29 -15 77 -35 85 -32 11 -100 -50 -109
-98 -3 -11 -11 -20 -19 -20 -8 0 -23 -13 -33 -28 -25 -40 -58 -51 -79 -26 -24
29 -65 16 -110 -35 l-36 -41 -24 23 c-47 43 -118 19 -118 -40 0 -45 -10 -58
-44 -58 -50 0 -59 -11 -51 -63 l7 -46 -36 3 c-19 2 -37 -2 -39 -8 -6 -19 5
-46 19 -46 8 0 14 -6 14 -12 0 -9 4 -8 11 2 9 13 10 13 6 0 -5 -19 -51 -25
-68 -8 -8 7 -21 13 -29 13 -10 0 -14 8 -12 23 2 15 -2 22 -12 22 -9 0 -16 -9
-16 -20 0 -20 -17 -24 -85 -23 -11 0 -26 -8 -33 -18 -11 -16 -21 -18 -55 -13
-23 4 -46 10 -52 15 -5 5 -37 9 -72 9 -55 0 -73 -5 -131 -38 -47 -26 -80 -38
-112 -39 -38 -2 -49 -7 -75 -37 -32 -39 -49 -45 -59 -21 -9 25 -73 19 -102
-10 -20 -20 -25 -34 -22 -62 3 -35 1 -38 -26 -40 -57 -4 -86 -23 -86 -54 0
-28 -7 -33 -42 -30 -10 1 -18 -4 -18 -12 0 -7 -15 -21 -34 -29 -36 -18 -54
-56 -30 -65 21 -8 18 -36 -3 -29 -10 3 -29 -3 -42 -13 -23 -18 -24 -22 -13
-57 7 -24 8 -43 2 -55 -13 -24 -13 -29 4 -29 21 0 46 39 46 71 0 20 7 30 30
39 26 11 30 18 30 50 0 41 22 59 46 39 11 -9 20 -5 42 20 30 35 79 64 93 55 5
-3 -4 -22 -20 -42 -16 -20 -31 -48 -33 -62 -2 -17 -10 -26 -24 -28 -31 -4 -62
-42 -72 -87 -4 -22 -12 -39 -17 -39 -6 1 -14 -9 -20 -21 -16 -35 -60 -83 -81
-87 -10 -2 -23 -13 -29 -26 -5 -12 -15 -22 -22 -22 -7 0 -13 -7 -13 -15 0 -8
-6 -15 -14 -15 -8 0 -17 -15 -21 -37 -3 -21 -22 -66 -41 -101 -19 -34 -34 -73
-34 -85 0 -13 -13 -36 -30 -52 -32 -31 -39 -71 -19 -122 8 -21 7 -30 -3 -38
-21 -17 -48 -71 -48 -98 0 -14 7 -28 17 -31 14 -6 11 -13 -19 -44 -49 -51 -58
-72 -58 -136 0 -48 -3 -56 -18 -56 -51 0 -67 -75 -28 -124 19 -23 22 -32 13
-42 -42 -47 -41 -43 -27 -80 10 -26 11 -26 25 -8 8 10 15 26 15 35 0 9 7 22
15 29 8 7 15 29 15 50 0 21 -7 43 -15 50 -21 18 -19 40 5 40 26 0 70 21 71 34
1 6 0 19 -1 30 -3 27 9 68 19 62 12 -8 51 23 51 40 0 8 4 14 10 14 5 0 16 15
24 33 26 59 27 73 6 92 -27 25 -25 35 7 35 18 0 35 10 48 27 13 15 27 23 33
19 18 -11 14 -37 -7 -43 -22 -6 -38 -78 -22 -97 12 -14 -4 -36 -25 -36 -20 0
-45 -48 -38 -75 3 -14 2 -25 -3 -25 -6 0 -16 -19 -24 -42 -7 -24 -19 -54 -26
-68 -7 -14 -13 -31 -13 -37 0 -7 -5 -13 -10 -13 -6 0 -9 -21 -8 -46 1 -25 -4
-49 -10 -52 -13 -9 -42 -89 -42 -118 0 -11 7 -29 16 -40 15 -18 15 -18 11 9
-3 21 -1 27 10 23 8 -3 11 -1 8 4 -3 6 1 13 9 16 9 3 16 15 16 26 0 16 3 18
14 9 22 -18 46 -2 46 31 l0 30 26 -17 c40 -26 74 -7 74 40 0 41 16 46 30 9 16
-41 12 -80 -15 -130 -14 -26 -25 -57 -25 -70 0 -12 -7 -29 -15 -38 -8 -8 -15
-24 -15 -36 0 -12 -8 -34 -18 -48 -10 -15 -22 -35 -25 -44 -4 -10 -17 -18 -30
-18 -16 0 -28 -9 -35 -25 -15 -32 -15 -55 -1 -55 5 0 7 -5 3 -11 -4 -7 -15 -2
-31 15 -22 24 -43 34 -43 21 0 -4 7 -20 16 -37 14 -28 19 -30 55 -25 44 6 58
-6 36 -31 -9 -10 -18 -49 -22 -94 -7 -74 -6 -78 13 -78 27 0 45 -23 30 -38 -9
-9 -7 -17 8 -33 27 -30 25 -120 -4 -174 -12 -22 -22 -33 -22 -25 0 13 -1 13
-10 0 -14 -22 -12 -46 6 -64 20 -20 41 -21 24 -1 -9 11 -6 19 18 42 16 15 38
33 48 39 10 6 23 20 29 33 5 12 17 20 25 19 19 -3 71 42 64 54 -3 5 -16 13
-29 18 -18 7 -25 19 -30 54 -4 25 -5 53 -1 61 6 17 42 21 48 5 2 -6 14 -6 33
-1 l30 9 -32 1 c-31 1 -31 2 -36 59 -3 31 -8 71 -12 88 -5 22 -2 40 10 58 10
15 15 37 12 52 -5 28 19 80 57 122 12 13 21 27 21 30 0 4 5 6 12 4 8 -2 13 7
13 21 0 13 10 37 22 52 27 35 32 75 11 90 -21 16 -10 32 27 40 17 4 30 11 30
16 0 5 3 9 8 9 4 0 8 -29 10 -64 2 -56 0 -65 -17 -71 -37 -11 -43 -30 -25 -75
15 -36 15 -50 6 -86 -8 -30 -9 -52 -2 -69 6 -15 10 -37 10 -50 0 -13 6 -28 13
-32 8 -4 17 -20 20 -34 6 -22 3 -28 -14 -32 -33 -9 -13 -26 24 -21 26 3 39 -2
71 -31 39 -35 40 -36 19 -50 -45 -32 -37 -106 13 -125 24 -9 24 -11 10 -32
-20 -28 -20 -57 -1 -82 10 -13 11 -25 4 -43 -16 -42 -11 -92 11 -110 11 -10
20 -30 20 -45 0 -41 41 -59 82 -35 16 9 42 17 58 17 15 0 38 8 50 18 19 16 20
19 7 30 -12 10 -18 10 -32 -4 -12 -12 -19 -14 -28 -5 -6 6 -26 11 -44 11 -27
0 -37 7 -58 40 -31 49 -31 54 0 74 28 18 34 63 10 72 -22 9 -18 27 10 54 17
16 25 34 25 57 0 26 -5 34 -25 39 -26 6 -33 28 -14 40 7 4 10 27 7 60 -4 43
-1 57 13 70 10 9 25 40 34 69 17 52 17 53 -6 85 -22 29 -23 32 -6 41 10 6 29
29 44 52 32 51 40 144 23 262 -25 165 -25 158 30 320 28 83 54 159 57 170 4
11 12 29 20 40 7 11 13 27 13 35 0 9 11 27 25 40 14 13 25 31 25 41 0 9 7 22
15 29 15 12 65 114 65 133 0 6 6 18 13 26 7 9 20 36 27 61 8 27 27 56 47 73
18 16 33 35 33 43 0 8 12 21 28 27 43 20 92 51 92 60 0 4 18 7 40 7 22 0 40 4
40 10 0 5 28 9 65 9 38 -1 71 4 80 11 10 9 15 9 15 1 0 -6 9 -11 20 -11 24 0
26 -9 4 -25 -14 -10 -12 -13 16 -25 26 -11 33 -11 40 -1 5 9 16 -8 31 -48 19
-50 28 -61 46 -61 20 0 23 -5 23 -40 0 -22 5 -40 10 -40 6 0 10 -18 10 -40 l0
-40 40 0 40 0 0 -40 c0 -27 7 -47 20 -60 11 -11 20 -29 20 -40 0 -11 5 -20 11
-20 19 0 -6 -120 -27 -133 -8 -4 -14 -16 -14 -26 0 -22 -55 -81 -75 -81 -9 0
-15 -9 -15 -21 0 -12 -8 -23 -20 -26 -11 -3 -20 -12 -20 -19 0 -8 -7 -14 -15
-14 -8 0 -25 -6 -36 -12 -17 -10 -23 -10 -26 0 -3 6 -10 12 -17 12 -21 0 -35
-163 -20 -228 7 -29 18 -60 25 -68 15 -18 14 -155 -2 -164 -13 -9 -28 -73 -29
-122 0 -20 -5 -40 -10 -43 -6 -4 -8 -10 -5 -15 3 -5 -2 -15 -10 -23 -17 -18
-16 -61 2 -97 7 -14 13 -32 13 -41 0 -20 -84 -110 -107 -114 -10 -2 -20 -4
-22 -4 -2 -1 1 -7 6 -13 5 -7 10 -23 11 -35 1 -20 -1 -20 -26 -7 -38 19 -81
17 -119 -6 -37 -22 -39 -26 -20 -43 40 -37 91 -47 126 -25 16 10 23 7 44 -18
24 -28 45 -113 32 -133 -6 -11 19 -21 51 -21 14 0 22 4 19 10 -3 6 3 10 14 10
10 0 22 6 25 13 5 10 7 10 12 0 3 -7 15 -13 26 -13 27 0 18 -23 -13 -32 -136
-40 -165 -52 -192 -78 -32 -30 -78 -47 -96 -35 -6 3 -23 2 -38 -2 l-28 -7 30
-6 c25 -5 30 -10 28 -31 -1 -26 -1 -26 71 -23 39 2 90 6 113 10 34 5 45 2 62
-15 14 -14 21 -17 21 -7 0 25 27 38 65 30 46 -8 74 -37 67 -70 -6 -34 -36 -47
-94 -42 -27 3 -51 1 -54 -3 -3 -5 -20 -9 -37 -9 -24 0 -28 -3 -17 -10 20 -13
72 -13 106 0 42 16 125 21 162 9 38 -13 42 -29 7 -29 -14 0 -25 -5 -25 -11 0
-8 -4 -8 -14 0 -11 9 -18 7 -33 -13 -15 -18 -26 -23 -49 -19 -22 3 -26 2 -14
-6 13 -9 12 -11 -5 -12 -11 -1 -34 -1 -50 0 -20 1 -37 -5 -49 -18 -10 -11 -22
-18 -27 -16 -4 3 -10 1 -14 -5 -3 -5 -20 -7 -37 -3 -26 5 -30 3 -25 -9 3 -9 0
-15 -6 -15 -35 1 -59 -4 -53 -11 4 -4 13 -7 19 -7 7 0 12 -17 11 -43 0 -23 2
-42 6 -42 4 0 19 -18 34 -40 15 -24 34 -40 46 -40 10 0 21 -4 24 -9 4 -5 41
-13 84 -16 79 -8 137 -24 115 -32 -8 -3 -13 -23 -13 -53 0 -30 -6 -54 -15 -64
-8 -8 -15 -22 -15 -30 0 -10 -9 -16 -21 -16 -11 0 -29 -5 -40 -10 -15 -8 -19
-7 -19 4 0 8 7 19 16 24 12 6 13 11 5 16 -12 8 -29 -7 -47 -39 -6 -11 -23 -26
-37 -33 -14 -7 -40 -29 -57 -50 -25 -30 -32 -34 -40 -22 -5 8 -10 10 -10 3 0
-6 16 -21 36 -32 27 -16 66 -24 161 -33 129 -12 163 -25 163 -62 0 -8 7 -17
16 -20 13 -5 14 -9 4 -21 -9 -10 -9 -15 -1 -15 14 0 14 -40 1 -76 -9 -22 -7
-29 10 -41 11 -8 20 -24 20 -36 1 -26 32 -120 47 -139 17 -22 15 -128 -2 -155
-13 -19 -14 -28 -5 -38 7 -8 9 -18 6 -24 -4 -5 13 -26 37 -45 35 -28 53 -36
86 -36 l41 0 0 -40 c0 -29 4 -40 15 -40 11 0 15 12 15 52 0 40 3 49 12 40 7
-7 25 -12 40 -12 26 0 28 -3 28 -40 0 -36 -2 -40 -25 -40 -22 0 -25 -4 -25
-40 0 -36 2 -40 26 -40 21 0 25 -3 18 -17 -8 -19 -8 -38 2 -120 6 -51 6 -51
49 -62 24 -6 54 -11 67 -11 36 0 54 -15 39 -33 -8 -10 -9 -17 -1 -22 5 -3 10
-18 10 -33 0 -38 41 -57 80 -37 30 16 152 95 160 104 3 4 22 17 42 31 21 14
38 28 38 33 0 4 5 7 11 7 6 0 33 18 60 41 51 43 68 69 175 275 72 140 94 158
94 79 0 -24 -4 -46 -10 -50 -5 -3 -7 -12 -4 -20 3 -7 -1 -29 -9 -47 -8 -18
-20 -49 -27 -68 -7 -19 -64 -138 -125 -265 -62 -126 -115 -238 -118 -247 -4
-10 -11 -18 -17 -18 -5 0 -10 -10 -10 -22 0 -13 -9 -39 -19 -58 -11 -19 -34
-64 -51 -100 -17 -36 -35 -72 -41 -80 -5 -8 -23 -44 -40 -80 -16 -36 -35 -72
-40 -80 -5 -8 -23 -44 -39 -80 -17 -36 -34 -72 -40 -80 -5 -8 -25 -46 -44 -85
-20 -38 -42 -81 -50 -95 -8 -14 -37 -71 -65 -127 -27 -56 -54 -110 -60 -120
-5 -10 -24 -47 -42 -83 -18 -36 -45 -90 -61 -120 -15 -30 -32 -66 -38 -80 -5
-14 -14 -32 -18 -40 -25 -45 -42 -83 -42 -96 0 -8 -4 -14 -10 -14 -5 0 -10 -7
-10 -15 0 -8 -21 -63 -46 -122 -80 -188 -110 -269 -153 -418 -16 -55 -20 -60
-54 -68 -25 -6 -34 -13 -30 -23 9 -25 -17 -44 -63 -44 -69 0 -46 -25 33 -36
37 -5 68 -15 71 -21 2 -7 -3 -13 -12 -13 -16 0 -21 -16 -17 -54 0 -10 -8 -45
-20 -77 -20 -55 -21 -71 -4 -140 l7 -27 -54 10 c-29 5 -68 16 -87 24 -18 8
-45 14 -60 14 l-26 0 25 20 c17 14 34 19 53 15 20 -3 30 0 34 13 10 25 26 39
41 34 9 -3 12 13 12 57 l0 61 -30 0 c-17 0 -29 -3 -29 -7 1 -5 0 -21 -1 -38
-2 -27 -3 -26 -12 12 -13 60 -78 107 -78 57 0 -8 7 -14 15 -14 22 0 19 -7 -19
-46 -22 -23 -39 -32 -50 -28 -19 7 -21 30 -3 37 9 3 9 7 0 17 -9 10 -17 3 -39
-30 -22 -33 -25 -43 -14 -50 7 -5 10 -15 6 -26 -6 -16 -7 -16 -20 1 -12 17
-14 16 -26 -19 -13 -42 -8 -55 15 -36 35 29 29 -43 -12 -140 l-14 -35 -16 35
c-14 32 -16 33 -23 14 -5 -11 -8 -82 -8 -156 0 -116 2 -140 19 -167 30 -50 81
-42 142 25 l32 35 33 -16 c18 -9 38 -18 45 -19 35 -6 55 -19 65 -41 6 -14 18
-25 27 -25 8 0 21 -15 29 -32 36 -88 46 -138 45 -233 0 -53 2 -99 5 -102 3 -3
12 0 21 7 12 10 15 10 15 -4 0 -9 -4 -16 -9 -16 -5 0 -19 -27 -31 -59 -22 -59
-29 -108 -51 -356 -7 -71 -16 -132 -20 -135 -11 -7 -15 -147 -5 -157 11 -12
138 -9 160 4 16 9 20 23 20 82 1 39 -2 71 -6 71 -4 0 -10 17 -14 38 -4 20 -10
39 -14 42 -7 6 -50 178 -50 204 0 11 12 22 30 29 l31 12 -2 100 c-1 55 -6 106
-12 113 -10 13 -4 226 9 289 6 29 8 31 32 22 14 -5 37 -8 51 -5 14 3 77 2 139
-2 111 -7 112 -7 112 15 0 30 26 53 61 53 26 0 29 3 29 33 0 17 5 39 10 47 8
13 11 11 16 -7 4 -13 10 -23 15 -23 5 0 9 -13 9 -30 0 -27 2 -29 29 -24 41 8
47 -9 55 -151 7 -121 18 -207 36 -280 16 -62 18 -115 7 -122 -6 -4 -25 -8 -42
-9 -16 -2 -62 -8 -102 -15 -57 -9 -72 -15 -76 -31 -7 -25 -27 -14 -27 13 0 11
-5 17 -10 14 -6 -4 -8 -15 -5 -26 4 -11 2 -19 -4 -19 -6 0 -11 -8 -11 -17 0
-15 -2 -14 -14 3 -14 18 -16 18 -32 2 -25 -25 -10 -36 46 -30 43 4 49 2 44
-11 -10 -26 35 -30 98 -8 68 23 148 37 148 25 0 -5 -46 -24 -103 -42 -56 -19
-108 -41 -116 -49 -12 -14 -12 -15 0 -10 8 3 73 24 144 47 72 23 151 50 176
60 25 11 68 26 95 35 93 31 98 35 121 94 12 31 25 73 28 94 7 36 55 87 83 87
24 0 82 43 82 61 0 10 4 19 8 19 5 0 15 18 22 41 8 22 26 50 40 63 17 13 29
36 33 60 3 21 20 60 37 87 32 48 32 50 30 171 -1 125 -3 154 -16 197 -5 17 -4
22 4 17 13 -8 6 16 -14 49 -7 11 -15 40 -19 65 -7 51 -53 276 -61 303 -5 16 1
17 64 11 82 -8 87 -4 83 73 -2 37 5 77 23 126 37 106 81 308 92 422 2 22 5 49
7 60 2 11 7 43 12 70 9 60 58 254 79 310 19 49 20 85 4 85 -49 0 -141 -114
-211 -260 -6 -14 -14 -27 -17 -30 -4 -3 -12 -21 -20 -40 -21 -57 -36 -91 -68
-165 -17 -38 -49 -122 -72 -185 -23 -63 -47 -128 -54 -145 -8 -16 -22 -52 -32
-80 -10 -27 -26 -65 -36 -83 -10 -18 -18 -38 -18 -45 0 -7 -6 -24 -14 -39 -8
-15 -17 -42 -21 -60 -4 -18 -13 -36 -19 -40 -8 -6 -7 -8 2 -8 6 0 12 -4 12 -9
0 -9 -125 -42 -175 -46 -34 -4 -39 7 -14 26 18 14 21 21 11 27 -10 7 -8 14 8
35 11 14 58 100 104 190 46 91 99 187 117 213 19 27 32 53 31 58 -2 5 6 18 16
30 20 22 92 168 92 187 0 6 6 23 14 37 8 15 29 59 46 97 45 99 94 199 101 205
3 3 8 10 10 15 14 34 82 145 90 145 5 0 9 4 9 9 0 5 29 57 65 116 36 58 65
109 65 113 0 4 42 93 94 197 93 189 125 255 165 350 12 27 28 56 36 65 7 8 17
29 21 45 l7 30 -37 -40 c-46 -49 -113 -143 -146 -204 -14 -25 -34 -59 -46 -76
-11 -16 -25 -43 -32 -58 -7 -15 -17 -33 -22 -40 -22 -25 -90 -137 -90 -147 0
-5 -4 -10 -10 -10 -5 0 -10 -5 -10 -12 0 -6 -9 -21 -19 -32 -22 -24 -69 -102
-78 -128 -3 -10 -9 -18 -14 -18 -5 0 -9 -6 -9 -14 0 -7 -7 -19 -16 -27 -15
-12 -34 -44 -71 -122 -10 -20 -21 -37 -25 -37 -4 0 -15 -17 -23 -37 -9 -21
-24 -47 -35 -58 -10 -11 -19 -23 -19 -28 0 -4 -8 -17 -16 -30 -26 -36 -79
-119 -94 -146 -25 -46 -92 -132 -107 -138 -8 -3 -14 -15 -14 -26 0 -27 -30
-107 -40 -107 -5 0 -13 -12 -19 -27 -6 -16 -24 -50 -41 -78 -16 -27 -33 -58
-36 -67 -3 -10 -10 -18 -15 -18 -5 0 -9 -9 -9 -20 0 -11 -4 -20 -10 -20 -5 0
-17 -17 -25 -37 -9 -21 -21 -42 -28 -48 -7 -5 -27 -39 -45 -75 -44 -88 -102
-190 -129 -227 -13 -17 -23 -34 -23 -37 0 -3 51 -7 113 -7 61 -1 102 -4 91 -6
-16 -3 -24 -14 -29 -40 -10 -55 -45 -100 -45 -58 0 8 -6 15 -14 15 -7 0 -20 7
-27 16 -8 9 -47 32 -89 51 -41 18 -82 43 -90 54 -14 18 -22 19 -70 12 -94 -15
-93 -15 -88 89 3 50 10 93 16 97 7 4 8 12 2 21 -13 20 -13 77 0 85 6 3 10 21
10 40 0 18 6 35 14 38 7 3 16 23 20 46 3 22 11 43 16 46 15 9 12 -48 -4 -70
-11 -17 -46 -121 -46 -139 0 -17 19 -2 39 32 12 20 33 52 47 71 13 19 24 42
24 52 0 13 7 19 24 19 19 0 22 4 19 24 -8 38 16 136 33 136 17 0 20 76 3 82
-7 2 1 28 20 68 17 35 31 68 31 72 0 5 7 16 15 24 8 9 18 27 22 42 3 14 15 35
25 46 10 11 18 25 18 32 0 6 7 17 15 24 8 7 15 21 15 31 0 11 3 19 8 19 4 0
16 17 27 37 11 21 34 61 52 90 18 29 33 57 33 63 0 5 4 10 9 10 5 0 24 25 41
55 17 30 35 55 39 55 4 0 13 12 20 27 7 16 37 65 67 110 30 44 54 85 54 90 0
5 11 20 25 33 13 12 22 26 20 30 -3 4 4 15 14 24 9 9 28 39 41 66 13 28 30 50
37 50 10 0 12 7 8 19 -4 13 1 27 14 40 12 12 21 26 21 31 0 6 4 10 9 10 4 0
20 27 35 60 14 33 32 63 41 66 8 4 15 11 15 16 0 6 14 33 30 60 17 26 30 55
30 63 0 8 6 15 13 15 17 0 49 34 41 43 -4 4 1 18 10 31 9 14 16 33 16 42 0 32
24 84 38 84 7 0 12 5 10 12 -8 23 -27 19 -56 -12 -22 -23 -31 -27 -35 -16 -9
22 34 54 81 62 41 6 56 26 30 38 -7 3 1 3 17 0 21 -4 26 -3 16 4 -11 8 -10 12
8 21 26 14 29 -4 6 -35 -16 -21 -20 -44 -7 -44 12 0 72 55 72 66 1 5 14 25 30
44 17 19 30 40 30 47 0 7 3 13 8 13 4 0 24 16 45 35 21 19 50 38 65 41 26 6
26 6 7 -9 -17 -14 -18 -16 -3 -17 9 0 20 5 23 10 10 16 116 12 294 -10 90 -11
166 -18 168 -16 3 2 -22 7 -54 11 -32 4 -96 15 -143 25 -47 10 -121 22 -165
25 -43 4 -91 12 -105 17 -24 10 -24 11 -5 18 13 5 21 3 23 -6 5 -19 162 -16
162 3 0 9 13 13 40 13 23 0 40 5 40 11 0 6 9 9 20 6 48 -12 3 34 -70 72 -25
13 -52 30 -61 37 -8 8 -18 14 -22 14 -6 0 -108 61 -117 70 -18 18 -161 94
-233 125 -37 15 -71 33 -76 39 -4 6 -11 30 -15 54 -9 59 -46 129 -95 180 -22
23 -43 53 -47 67 -3 14 -9 25 -13 25 -3 0 -16 17 -29 38 -21 34 -109 102 -131
102 -5 0 -15 17 -22 37 -19 58 4 372 31 422 9 16 87 25 95 10 3 -4 12 -6 19
-3 8 3 17 1 21 -5 11 -18 31 -12 32 9 1 11 -2 20 -6 20 -4 0 -16 6 -26 14 -17
12 -16 15 18 47 45 43 67 123 48 176 -19 51 -7 71 44 79 25 3 56 4 69 0 18 -4
32 2 56 24 27 25 31 34 26 66 -4 20 -9 40 -12 45 -3 5 0 18 6 29 9 16 8 20 -5
20 -19 0 -19 24 0 40 8 7 15 16 15 21 0 5 -7 9 -15 9 -8 0 -15 -5 -15 -10 0
-6 -8 -5 -20 2 -14 9 -16 14 -7 20 9 6 9 8 0 8 -21 0 -15 17 8 23 12 3 18 10
15 16 -4 6 -14 7 -23 4 -11 -4 -14 -3 -9 5 4 7 14 12 22 12 8 0 14 5 14 10 0
16 27 12 34 -5 7 -18 37 -20 55 -2 10 10 17 6 37 -16 19 -22 27 -26 42 -18 10
6 55 9 99 9 64 -1 90 3 129 21 l48 23 21 -26 c19 -23 21 -24 32 -8 11 15 12
15 12 -5 1 -23 16 -32 23 -13 2 5 14 7 26 3 18 -4 23 -11 20 -28 -7 -32 12
-51 59 -64 31 -9 43 -18 51 -39 19 -56 82 -88 82 -42 0 22 -20 26 -38 8 -7 -7
-12 -8 -12 -2 0 5 5 15 12 22 8 8 3 19 -22 42 -27 25 -31 33 -19 41 12 7 11 9
-2 9 -20 0 -29 20 -29 60 0 16 -7 35 -15 43 -8 9 -22 37 -31 64 -21 63 -58 97
-95 89 -27 -5 -27 -4 -26 40 2 38 -2 48 -26 67 -29 23 -30 50 -1 61 8 3 14 15
14 26 0 22 -16 27 -22 8 -8 -22 -27 27 -21 50 7 28 39 28 46 1 4 -14 10 -18
18 -13 9 5 10 2 6 -9 -11 -30 12 -18 50 24 69 76 125 125 153 134 33 10 44 42
30 85 -9 28 -9 43 -1 56 5 11 11 13 11 7 0 -25 18 -13 18 12 0 14 -4 28 -9 31
-5 3 -9 17 -9 31 0 13 -9 37 -20 53 -20 29 -16 48 7 29 7 -6 13 -9 13 -6 0 2
17 -1 38 -8 24 -9 38 -20 40 -33 3 -17 -1 -19 -20 -15 -18 4 -20 3 -8 -6 8 -6
25 -11 37 -11 12 0 25 -4 28 -10 3 -5 17 -10 31 -10 19 0 24 5 24 24 0 13 -6
23 -12 22 -7 0 -14 3 -15 9 -1 5 -11 13 -23 17 -14 5 -20 14 -16 23 4 10 -3
19 -18 25 -34 12 -40 27 -17 40 16 8 22 7 29 -6 7 -13 17 -15 40 -11 18 4 34
2 38 -4 4 -8 9 -7 15 2 4 8 3 19 -3 26 -6 8 -12 23 -14 36 -2 12 -7 35 -10 50
-5 20 -2 32 9 40 14 11 14 14 2 31 -11 14 -15 16 -15 5 0 -12 -2 -12 -9 0 -5
8 -7 21 -4 28 4 11 8 12 13 3 4 -7 13 -10 19 -6 6 4 9 2 6 -6 -3 -8 1 -22 9
-33 14 -18 15 -18 16 -2 0 21 20 23 20 2 0 -13 2 -13 14 -3 8 7 11 15 7 18 -4
3 -13 14 -19 25 -10 17 -11 18 -12 3 0 -32 -19 -19 -22 15 -2 17 -7 30 -12 27
-5 -3 -12 5 -17 18 -5 12 -15 22 -24 22 -8 0 -15 5 -15 10 0 6 5 10 11 10 6 0
8 9 4 20 -5 16 -2 20 19 20 19 0 26 -5 26 -19 0 -22 36 -52 54 -45 13 5 18
104 5 104 -5 0 -9 -7 -9 -15 0 -8 -5 -15 -11 -15 -6 0 -9 12 -7 28 2 19 8 26
20 24 20 -3 27 7 43 67 12 46 12 47 -9 45 -11 -1 -24 -3 -28 -3 -5 -1 -8 -8
-8 -18 0 -9 -3 -14 -6 -10 -3 3 0 19 7 35 12 27 15 28 43 18 17 -6 34 -15 37
-20 4 -5 15 -5 25 -1 12 4 14 9 7 12 -7 2 -9 11 -6 19 3 8 -4 25 -15 37 -11
12 -24 36 -28 52 -16 64 -54 133 -77 139 -14 3 -30 21 -41 46 -15 34 -22 40
-47 40 -19 0 -29 5 -29 15 0 8 -9 19 -20 25 -14 7 -20 21 -20 43 0 21 3 28 9
19 7 -12 12 -12 30 -1 17 11 25 11 41 1 32 -20 41 -14 39 26 -2 21 0 43 4 49
4 6 1 14 -5 16 -10 4 -9 8 2 17 12 10 12 11 -5 5 -11 -4 -29 -9 -40 -12 -18
-4 -18 -3 3 13 32 24 27 38 -12 31 -39 -6 -50 3 -59 50 -7 37 9 55 41 46 13
-3 22 -1 22 6 0 6 -6 11 -14 11 -15 0 -30 27 -27 48 1 6 -8 12 -19 12 -12 0
-36 16 -54 35 -19 19 -41 35 -50 35 -10 0 -16 9 -16 25 0 16 -6 25 -15 25 -8
0 -15 7 -15 16 0 8 -4 12 -10 9 -5 -3 -10 -1 -10 4 0 6 -7 11 -15 11 -9 0 -18
7 -21 15 -4 8 -14 15 -23 15 -13 0 -14 2 -2 9 11 7 6 13 -25 26 -98 42 -102
46 -125 103 -17 42 -24 51 -29 37 -5 -13 -9 -15 -14 -7 -4 7 -4 17 -1 22 3 6
-2 13 -12 17 -10 3 -33 17 -51 31 -25 18 -37 21 -45 13 -6 -6 -20 -11 -30 -11
-15 0 -18 5 -15 24 3 14 1 30 -3 37 -10 16 -59 23 -59 9 0 -6 -4 -9 -9 -6 -14
9 12 56 32 56 9 0 17 5 17 10 0 19 28 10 44 -15 10 -16 26 -25 42 -25 37 0 97
34 134 76 l33 38 17 -22 c10 -12 25 -22 33 -22 18 0 62 38 54 47 -4 3 -15 -1
-25 -10 -25 -22 -33 -21 -61 8 -37 39 -91 29 -91 -18 0 -10 -10 -27 -22 -38
-25 -20 -58 -25 -58 -9 0 6 -6 10 -13 10 -7 0 -20 9 -30 20 -10 12 -29 20 -47
20 -16 0 -39 9 -49 19 -31 31 -58 35 -78 12 -32 -37 -82 -15 -68 29 10 32 -30
63 -75 57 -19 -2 -43 1 -52 7 -11 6 -24 7 -39 0 -16 -8 -30 -6 -53 6 -20 9
-48 14 -76 12 -39 -3 -47 -8 -61 -35 -19 -38 -41 -41 -50 -7 -4 14 -7 20 -8
15 -1 -6 -18 -9 -41 -7 -22 2 -38 8 -35 12 3 5 -3 6 -13 3 -12 -3 -25 4 -36
21 -9 14 -23 26 -31 26 -8 0 -15 5 -15 10 0 16 37 12 44 -5 6 -16 41 -21 50
-6 3 5 -1 11 -9 15 -19 7 -19 21 1 41 22 21 92 17 124 -7 22 -17 26 -18 36 -4
6 9 16 16 21 16 6 0 16 6 22 13 10 13 71 12 69 -2 -6 -49 22 -62 63 -27 35 30
51 32 73 11 8 -8 17 -15 20 -15 3 0 6 7 6 15 0 20 16 19 24 -1 4 -9 9 -14 13
-10 3 3 17 -1 29 -9 32 -21 38 4 7 28 -13 10 -23 25 -23 33 0 8 -5 14 -11 14
-5 0 -7 -4 -4 -10 6 -10 -12 -8 -99 10 -21 5 -44 6 -51 4 -7 -3 -32 4 -56 15
-51 25 -55 26 -39 5 12 -13 7 -15 -41 -12 -53 3 -54 3 -53 34 2 39 -25 58 -68
49 -23 -6 -34 -16 -46 -46 -15 -39 -52 -56 -52 -24 0 8 -4 15 -10 15 -5 0 -10
6 -10 14 0 17 -35 30 -73 27 -16 -1 -34 3 -42 9 -8 7 -19 9 -26 5 -6 -4 -16
-1 -21 6 -7 11 -11 11 -15 2 -2 -7 -10 -13 -16 -13 -7 0 -21 -14 -32 -30 -20
-31 -26 -34 -82 -45 -30 -6 -33 -4 -33 19 0 13 5 28 10 31 13 8 -6 45 -23 45
-7 0 -22 -7 -33 -15z m511 -35 c-3 -5 -10 -10 -16 -10 -5 0 -9 5 -9 10 0 6 7
10 16 10 8 0 12 -4 9 -10z m-155 -30 c0 -5 -4 -10 -10 -10 -5 0 -10 5 -10 10
0 6 5 10 10 10 6 0 10 -4 10 -10z m425 -61 c-8 -12 -45 -12 -45 0 0 10 30 20
43 14 4 -3 5 -9 2 -14z m-555 -85 c0 -8 -4 -14 -10 -14 -5 0 -10 5 -10 11 0 5
-4 7 -10 4 -11 -7 -14 8 -4 18 10 9 34 -4 34 -19z m-180 -24 c0 -5 -4 -10 -10
-10 -5 0 -10 5 -10 10 0 6 5 10 10 10 6 0 10 -4 10 -10z m845 -80 c3 -5 1 -10
-4 -10 -6 0 -11 5 -11 10 0 6 2 10 4 10 3 0 8 -4 11 -10z m135 -101 c17 -30 6
-34 -14 -4 -9 14 -12 25 -7 25 6 0 15 -9 21 -21z m-200 -30 c0 -12 -37 -12
-44 0 -7 11 14 20 32 13 6 -2 12 -8 12 -13z m-1592 1 c12 0 22 -4 22 -10 0 -5
-9 -10 -20 -10 -16 0 -19 -6 -16 -34 4 -51 -5 -65 -32 -55 -18 7 -22 14 -17
30 6 18 5 19 -14 7 -12 -7 -21 -21 -21 -31 0 -14 -5 -16 -27 -11 l-28 6 23
-16 c27 -21 29 -40 3 -33 -14 3 -18 1 -14 -9 4 -10 0 -12 -11 -8 -17 7 -20 16
-9 27 3 4 5 33 4 65 -1 39 2 62 11 69 15 13 73 22 103 17 11 -2 30 -4 43 -4z
m1772 -49 c0 -13 -30 -22 -43 -14 -7 4 -2 10 13 14 14 4 26 7 28 8 1 1 2 -3 2
-8z m-87 -28 c-7 -2 -19 -2 -25 0 -7 3 -2 5 12 5 14 0 19 -2 13 -5z m-2843
-363 c0 -5 -15 -10 -32 -9 -28 0 -30 2 -13 9 28 12 45 12 45 0z m3482 -144
c19 -28 6 -34 -27 -15 -19 12 -33 25 -30 29 6 10 48 0 57 -14z m98 -1 c0 -17
-2 -18 -24 -9 -23 9 -20 24 4 24 11 0 20 -7 20 -15z m36 -22 c-11 -11 -19 6
-11 24 8 17 8 17 12 0 3 -10 2 -21 -1 -24z m-27 -83 c24 0 1 -18 -29 -22 -34
-5 -37 -1 -12 18 10 8 12 13 5 14 -7 0 -13 5 -13 12 0 6 7 4 18 -5 10 -10 24
-17 31 -17z m-2472 -146 c-3 -3 -12 -4 -19 -1 -8 3 -5 6 6 6 11 1 17 -2 13 -5z
m2366 -214 c6 -11 23 -20 37 -20 18 0 29 -8 38 -30 10 -21 21 -30 37 -30 28 0
54 -27 34 -35 -43 -15 -64 -10 -80 22 -24 48 -37 61 -69 68 -28 6 -65 47 -53
59 8 8 42 -12 56 -34z m67 30 c-20 -13 -40 -13 -40 0 0 6 12 10 28 10 21 0 24
-2 12 -10z m170 -44 c0 -3 -4 -8 -10 -11 -5 -3 -10 -1 -10 4 0 6 5 11 10 11 6
0 10 -2 10 -4z m51 -67 c26 -29 30 -49 10 -49 -16 0 -51 42 -51 60 0 28 9 25
41 -11z m64 -75 c25 -21 26 -24 8 -19 -12 3 -24 1 -28 -5 -3 -5 -1 -10 4 -10
6 0 11 -5 11 -10 0 -25 -37 16 -38 41 -1 35 5 36 43 3z m-71 -21 c40 -74 39
-71 23 -87 -17 -17 -42 -22 -32 -6 3 5 -2 21 -11 35 -12 19 -20 23 -28 15 -8
-8 -7 -13 4 -20 13 -8 12 -10 -2 -10 -21 0 -24 36 -6 75 15 33 33 32 52 -2z
m-110 11 c9 -3 16 -17 16 -31 0 -13 -4 -22 -9 -19 -5 4 -11 2 -13 -3 -4 -13
-53 -18 -53 -6 0 6 4 9 8 7 5 -1 7 6 5 15 -5 34 14 49 46 37z m16 -78 c0 -2
-7 -9 -15 -16 -12 -10 -15 -10 -15 4 0 9 7 16 15 16 8 0 15 -2 15 -4z m50
-106 c0 -5 -7 -7 -15 -4 -8 4 -15 8 -15 10 0 2 7 4 15 4 8 0 15 -4 15 -10z
m30 -31 c0 -5 -4 -9 -10 -9 -5 0 -10 7 -10 16 0 8 5 12 10 9 6 -3 10 -10 10
-16z m-56 -15 c16 -6 23 -34 8 -34 -10 0 -32 22 -32 32 0 10 3 10 24 2z m113
-66 c-3 -8 -6 -5 -6 6 -1 11 2 17 5 13 3 -3 4 -12 1 -19z m-156 -182 c-7 -8
-10 -24 -6 -35 5 -16 2 -18 -17 -14 l-23 6 24 -27 25 -26 -32 -30 c-42 -38
-72 -48 -72 -23 0 11 4 23 8 29 15 16 -7 94 -26 95 -23 0 24 19 61 24 15 2 35
8 44 14 23 12 29 6 14 -13z m-3953 -88 c17 -17 15 -30 -5 -26 -10 1 -24 -1
-30 -5 -8 -5 -13 -4 -13 2 0 6 5 11 10 11 6 0 10 7 10 15 0 18 12 19 28 3z
m-68 -110 c0 -19 -25 -25 -35 -7 -4 5 -4 22 0 37 6 26 7 26 21 8 8 -11 14 -28
14 -38z m3651 -111 c-8 -8 -11 -7 -11 4 0 20 13 34 18 19 3 -7 -1 -17 -7 -23z
m-1674 -12 c11 -34 10 -35 -17 -35 -15 0 -41 3 -57 6 l-30 6 21 22 c21 23 40
34 62 35 6 1 15 -15 21 -34z m1743 -55 c0 -5 -5 -10 -11 -10 -5 0 -7 5 -4 10
3 6 8 10 11 10 2 0 4 -4 4 -10z m106 -35 c4 -8 12 -15 20 -15 8 0 14 -6 14
-14 0 -13 -77 -32 -87 -22 -3 3 1 19 8 35 15 33 36 40 45 16z m69 -45 c3 -5 1
-10 -4 -10 -6 0 -11 5 -11 10 0 6 2 10 4 10 3 0 8 -4 11 -10z m-3435 -15 c0
-8 -9 -19 -20 -25 -15 -8 -20 -8 -20 3 0 14 19 37 32 37 4 0 8 -7 8 -15z
m3377 -31 c6 -17 -27 -26 -44 -13 -11 10 -11 14 -1 21 17 10 40 6 45 -8z
m-157 -31 c-1 -15 -49 -63 -64 -63 -8 0 -17 -10 -19 -22 -4 -20 -4 -19 -6 5 0
15 4 27 9 27 6 0 10 13 10 28 0 25 4 28 35 30 19 2 35 -1 35 -5z m-3740 -113
c0 -11 -4 -20 -9 -20 -14 0 -23 18 -16 30 10 17 25 11 25 -10z m2058 0 c18
-11 39 -20 47 -20 11 0 15 -11 15 -40 0 -38 -2 -40 -31 -40 -42 0 -89 47 -89
89 0 36 12 39 58 11z m-1515 -20 c25 0 21 -18 -5 -25 -13 -4 -31 -17 -40 -29
l-18 -21 0 28 c0 15 7 30 15 33 12 5 12 10 3 27 -11 21 -10 21 9 5 11 -10 27
-18 36 -18z m-466 -186 c-22 -20 -30 -23 -48 -14 -28 15 -20 33 22 47 47 16
61 -1 26 -33z m3478 36 c3 -5 1 -10 -4 -10 -6 0 -11 5 -11 10 0 6 2 10 4 10 3
0 8 -4 11 -10z m66 -41 c14 -22 11 -29 -13 -29 -14 0 -27 9 -33 23 -10 20 -8
22 13 21 13 0 28 -7 33 -15z m194 -79 c3 -5 1 -10 -4 -10 -6 0 -11 5 -11 10 0
6 2 10 4 10 3 0 8 -4 11 -10z m-15 -40 c0 -5 -7 -10 -16 -10 -8 0 -12 5 -9 10
3 6 10 10 16 10 5 0 9 -4 9 -10z m-523 -46 c-3 -3 -12 -4 -19 -1 -8 3 -5 6 6
6 11 1 17 -2 13 -5z m43 -24 c0 -11 -7 -20 -15 -20 -13 0 -14 4 -5 20 6 11 13
20 15 20 3 0 5 -9 5 -20z m-1621 -324 c10 -12 8 -16 -11 -22 -22 -7 -22 -7 -3
-15 19 -7 19 -8 -2 -8 -13 -1 -24 7 -28 19 -12 37 20 55 44 26z m1336 -184 c2
-24 -3 -35 -18 -44 -12 -6 -32 -21 -46 -34 -30 -28 -64 -32 -59 -7 2 9 15 20
31 24 34 9 66 46 67 77 0 35 22 21 25 -16z m-8 -1469 c-4 -20 -10 -39 -15 -42
-5 -3 -15 -24 -21 -46 -12 -39 -33 -85 -51 -115 -5 -8 -33 -67 -64 -132 -30
-64 -61 -120 -69 -125 -14 -8 -78 -128 -75 -141 3 -10 -11 -51 -33 -99 -10
-24 -19 -47 -19 -53 0 -5 -4 -10 -10 -10 -5 0 -10 -6 -10 -12 0 -13 -140 -298
-151 -308 -3 -3 -11 -21 -19 -40 -8 -19 -17 -37 -21 -40 -3 -3 -21 -35 -39
-72 -18 -38 -36 -68 -41 -68 -5 0 -9 -6 -9 -14 0 -17 -32 -79 -42 -84 -4 -2
-16 -20 -25 -40 -18 -39 -47 -72 -62 -72 -5 0 -12 -6 -14 -12 -4 -8 -6 -7 -6
4 -1 9 5 23 12 30 13 13 29 56 32 88 1 8 19 49 39 92 20 42 36 79 36 82 0 3
23 55 51 114 28 59 58 125 67 147 8 22 18 42 22 45 3 3 17 28 29 55 74 160
135 277 150 285 14 8 13 10 -6 16 -29 8 -29 23 2 84 21 42 29 49 48 45 19 -4
27 5 60 73 21 42 48 95 60 117 87 153 103 182 112 196 60 96 92 117 82 52z
m383 -72 c0 -5 -7 -11 -15 -15 -9 -3 -15 0 -15 9 0 8 7 15 15 15 8 0 15 -4 15
-9z m-43 -43 c-3 -8 -6 -5 -6 6 -1 11 2 17 5 13 3 -3 4 -12 1 -19z m-62 -19
c11 -16 1 -19 -13 -3 -7 8 -8 14 -3 14 5 0 13 -5 16 -11z m-16 -23 c-2 -1 -19
-8 -38 -14 -29 -10 -32 -10 -21 3 7 8 24 15 38 15 14 0 23 -2 21 -4z m15 -50
c-21 -15 -30 -14 -19 3 3 6 14 11 23 11 13 0 13 -2 -4 -14z m-244 -227 c0 -5
-7 -9 -15 -9 -15 0 -20 12 -9 23 8 8 24 -1 24 -14z m-1057 -1461 c-3 -18 -16
-55 -28 -83 -12 -27 -39 -90 -60 -140 -20 -49 -49 -119 -64 -155 -16 -36 -32
-76 -38 -89 -6 -17 -12 -21 -17 -13 -4 7 -2 12 3 12 6 0 11 8 11 17 0 15 15
63 40 128 38 101 151 355 157 355 1 0 0 -15 -4 -32z m74 -320 c-3 -8 -6 -5 -6
6 -1 11 2 17 5 13 3 -3 4 -12 1 -19z m-97 -299 c0 -5 -7 -9 -15 -9 -9 0 -12 6
-9 15 6 15 24 11 24 -6z m-274 -117 c19 -11 11 -76 -9 -80 -9 -2 -17 -11 -17
-20 0 -12 -3 -13 -11 -5 -12 12 -3 73 11 73 4 0 6 9 3 20 -5 21 3 25 23 12z
m260 -91 c5 -5 32 -16 61 -25 46 -15 73 -40 58 -54 -3 -3 -5 -1 -5 4 0 15 -87
37 -123 30 -17 -3 -45 -13 -61 -21 -16 -9 -31 -14 -33 -12 -8 9 9 33 36 52 16
10 27 23 25 27 -7 11 30 10 42 -1z m84 -120 c59 -42 88 -122 75 -199 -14 -88
-100 -128 -170 -81 -41 28 -76 96 -83 160 -11 115 91 184 178 120z m-410 -13
c0 -19 -38 -78 -50 -78 -18 0 -11 43 12 67 24 26 38 29 38 11z m110 -78 c0 -4
-9 -15 -19 -24 -11 -10 -39 -57 -62 -104 -40 -82 -43 -94 -51 -201 -5 -79 -4
-119 4 -128 8 -10 7 -13 -5 -13 -20 0 -42 50 -57 131 -10 52 -11 79 -2 125 7
31 10 59 7 62 -2 3 -7 -14 -11 -37 -4 -22 -10 -41 -15 -41 -5 0 -9 -25 -9 -55
0 -56 -8 -67 -29 -41 -7 8 -25 19 -41 25 -24 8 -33 7 -45 -6 -20 -19 -11 -31
10 -13 13 10 15 9 15 -8 0 -28 -27 -47 -61 -44 -16 2 -29 -1 -29 -7 0 -6 -4
-11 -9 -11 -16 0 1 44 26 67 38 37 26 61 -23 43 -21 -8 -29 -8 -35 2 -11 17
-9 80 3 95 5 7 5 14 -1 17 -7 5 -7 15 -1 32 6 14 10 38 10 53 0 35 24 59 37
38 5 -9 53 -24 121 -38 l112 -23 16 22 c36 52 107 104 130 95 8 -3 14 -8 14
-13z m-458 -95 c-2 -14 -9 -28 -15 -32 -7 -4 -8 0 -4 11 4 10 7 24 7 32 0 8 4
14 9 14 4 0 6 -11 3 -25z m194 -258 c6 -25 4 -28 -12 -25 -20 4 -29 30 -20 55
8 21 22 7 32 -30z m234 19 c0 -3 -4 -8 -10 -11 -5 -3 -10 -1 -10 4 0 6 5 11
10 11 6 0 10 -2 10 -4z m440 -826 c0 -5 -4 -10 -9 -10 -5 0 -23 -3 -40 -6 -19
-4 -31 -2 -31 4 0 9 17 14 68 21 6 0 12 -3 12 -9z"/>
<path d="M14538 2123 c7 -3 16 -2 19 1 4 3 -2 6 -13 5 -11 0 -14 -3 -6 -6z"/>
<path d="M8130 10232 c-8 -10 -27 -26 -42 -35 -16 -10 -28 -22 -28 -28 0 -5
21 -19 48 -30 26 -11 51 -27 55 -35 4 -8 18 -14 31 -14 20 0 23 -4 20 -36 -3
-37 -28 -84 -44 -84 -6 0 -10 -9 -10 -20 0 -11 -4 -20 -9 -20 -18 0 -71 -59
-71 -79 0 -12 11 -32 24 -44 19 -17 25 -35 28 -79 4 -55 3 -59 -28 -88 -19
-16 -35 -30 -38 -30 -9 0 -66 -62 -66 -71 0 -5 -7 -9 -15 -9 -8 0 -15 -5 -15
-11 0 -5 -21 -19 -47 -30 -34 -14 -54 -31 -69 -56 l-21 -36 -24 24 c-15 15
-37 25 -60 26 -20 0 -51 9 -70 18 -65 34 -203 17 -306 -38 -30 -16 -46 -47
-24 -47 5 0 12 -12 16 -27 9 -36 33 -63 57 -63 28 0 21 -14 -18 -35 -28 -15
-37 -16 -44 -6 -11 19 -28 6 -45 -36 -18 -43 -15 -48 33 -64 20 -6 51 -26 67
-43 17 -17 46 -42 64 -55 30 -21 37 -22 71 -12 20 6 47 11 59 11 11 0 21 4 21
9 0 5 9 12 20 16 30 9 90 72 106 110 8 19 14 53 14 75 0 36 22 100 35 100 25
0 56 -30 72 -69 27 -69 23 -286 -7 -353 -11 -27 -25 -48 -30 -48 -6 0 -10 -6
-10 -13 0 -23 -35 -47 -68 -47 -17 0 -34 -4 -37 -10 -3 -5 -15 -10 -26 -10
-10 0 -19 -4 -19 -9 0 -5 -3 -16 -6 -25 -8 -21 45 -48 69 -35 11 7 17 6 17 -1
0 -5 9 -10 19 -10 12 0 23 -9 27 -22 16 -50 -6 -178 -31 -178 -8 0 -15 -3 -15
-7 0 -10 -49 -33 -68 -33 -29 0 2 -21 54 -36 32 -9 58 -23 65 -35 6 -12 17
-18 25 -15 8 3 14 1 14 -4 0 -11 -20 -31 -73 -75 -35 -28 -52 -75 -27 -75 6 0
10 -8 10 -17 0 -24 43 -63 68 -63 33 0 92 -67 92 -105 0 -34 -32 -85 -54 -85
-7 0 -30 -11 -50 -25 -20 -14 -44 -25 -52 -25 -9 0 -33 -18 -54 -40 -34 -36
-38 -44 -33 -77 3 -20 14 -44 25 -55 10 -10 18 -23 18 -28 0 -18 53 -64 95
-83 22 -10 50 -33 63 -52 12 -19 27 -35 32 -35 6 0 10 -6 10 -14 0 -7 9 -24
19 -38 25 -31 61 -125 61 -159 0 -14 -9 -35 -20 -47 -24 -25 -25 -71 -4 -127
32 -81 31 -85 -13 -85 -25 0 -47 7 -61 20 -69 65 -43 -38 33 -125 14 -17 28
-38 31 -48 10 -30 -5 -86 -26 -100 -11 -6 -20 -15 -20 -18 0 -3 23 -17 50 -30
37 -17 50 -29 50 -45 0 -30 -24 -73 -64 -118 -20 -21 -36 -42 -36 -47 0 -5 -6
-9 -14 -9 -8 0 -17 -7 -20 -16 -5 -13 -15 -15 -46 -11 -27 3 -40 1 -41 -6 0
-7 -3 -40 -5 -74 -5 -58 -4 -62 13 -56 10 3 24 11 31 16 10 8 20 3 39 -16 24
-23 27 -36 34 -139 11 -151 12 -176 10 -220 -1 -34 -4 -38 -28 -38 -34 0 -43
7 -65 45 -17 30 -38 45 -38 26 0 -26 -66 -149 -95 -177 -47 -47 -75 -121 -77
-202 -1 -77 25 -172 48 -172 8 0 14 -4 14 -10 0 -14 26 -13 50 3 17 10 22 9
30 -3 5 -8 10 -10 10 -5 1 40 43 213 55 224 13 13 17 12 35 -4 11 -10 20 -24
20 -32 0 -7 5 -13 10 -13 6 0 10 -15 10 -34 0 -19 5 -38 10 -41 20 -12 10 -92
-20 -165 -17 -42 -30 -91 -30 -115 0 -79 32 -205 52 -205 5 0 8 7 8 15 0 8 7
15 15 15 17 0 65 49 65 67 0 7 4 13 8 13 5 0 16 18 25 41 13 33 20 40 39 37
19 -2 24 2 26 25 2 16 9 27 19 27 10 0 13 -6 9 -16 -3 -9 -9 -27 -12 -40 -3
-13 -12 -24 -20 -24 -10 0 -14 -12 -14 -40 0 -22 -4 -40 -8 -40 -5 0 -17 -18
-28 -40 -10 -22 -25 -40 -31 -40 -7 0 -13 -10 -13 -23 0 -12 -6 -31 -13 -42
-7 -11 -20 -36 -27 -55 -8 -19 -23 -51 -35 -70 -23 -38 -55 -118 -55 -138 0
-7 -12 -36 -26 -65 -14 -28 -34 -76 -45 -106 -10 -30 -23 -59 -28 -65 -4 -6
-12 -24 -16 -41 -12 -44 -12 -45 -15 -50 -1 -3 -3 -8 -4 -12 -1 -5 -5 -14 -9
-21 -11 -17 32 -32 91 -32 26 0 64 -5 85 -11 47 -13 63 2 72 71 4 25 10 54 14
65 13 32 75 160 81 165 3 3 16 25 29 50 26 48 28 52 57 115 24 50 285 470 313
502 6 6 13 24 17 40 10 42 38 94 70 130 30 32 101 73 129 73 8 0 15 4 15 9 0
4 39 28 88 52 48 24 89 47 92 50 3 3 28 14 55 24 28 10 57 24 65 31 8 6 26 15
40 19 34 10 121 56 143 76 10 9 19 26 20 38 1 11 5 21 9 21 4 0 8 8 8 18 1 9
7 28 14 40 l13 24 16 -26 c19 -28 22 -56 7 -56 -5 0 -10 -6 -10 -14 0 -7 -10
-21 -22 -29 l-23 -16 27 0 c28 -1 167 33 203 49 11 5 56 16 100 25 44 9 112
32 150 50 39 18 97 42 130 53 34 12 74 26 90 33 17 6 44 17 60 24 17 7 51 20
78 30 26 10 47 22 47 26 0 5 7 9 15 9 8 0 15 4 15 8 0 4 21 21 47 38 25 16 51
34 57 39 12 11 138 94 205 135 23 13 41 28 41 34 0 5 11 23 24 41 44 57 47
203 5 225 -27 15 -46 7 -103 -45 -54 -49 -58 -51 -75 -31 -9 10 -8 28 4 72 8
32 15 77 15 101 0 37 -3 43 -24 49 -13 3 -36 19 -50 35 -14 16 -49 40 -78 55
-29 15 -85 48 -126 75 -40 27 -76 49 -79 49 -3 0 -34 18 -69 40 -35 22 -66 40
-68 40 -10 0 -104 66 -176 124 -81 65 -131 113 -170 166 -14 18 -35 46 -47 61
-13 15 -23 32 -23 38 0 6 -4 11 -8 11 -4 0 -15 12 -24 28 -28 47 -81 104 -108
114 -14 6 -58 10 -98 9 -85 -2 -105 7 -122 51 -7 18 -19 47 -26 63 -47 112
-54 147 -58 283 -3 75 -9 187 -15 247 -6 61 -8 141 -4 180 5 58 11 74 34 97
15 16 38 28 53 28 41 0 72 38 132 159 67 136 76 191 49 300 -18 76 -46 121
-74 121 -22 0 -59 35 -72 67 -5 13 -9 68 -9 121 -1 222 -30 354 -103 465 -44
66 -124 147 -144 147 -7 0 -13 4 -13 9 0 14 -281 150 -334 161 -27 6 -58 15
-69 21 -14 8 -21 8 -26 0 -5 -8 -15 -5 -31 9 -17 15 -37 20 -77 20 -29 0 -53
5 -53 10 0 18 -94 11 -110 -8z m360 -1163 c11 -8 12 -12 3 -16 -7 -2 -13 -22
-13 -43 0 -37 -1 -38 -42 -42 -61 -7 -70 -1 -66 41 3 35 5 36 48 42 25 3 41 7
37 7 -10 2 1 22 11 22 4 0 14 -5 22 -11z m657 -1455 c-3 -3 -12 -4 -19 -1 -8
3 -5 6 6 6 11 1 17 -2 13 -5z m24 -47 c14 -17 28 -49 32 -70 5 -32 2 -43 -18
-65 -14 -15 -30 -42 -36 -59 -10 -33 -28 -45 -30 -20 0 10 -2 10 -6 0 -7 -19
-73 -17 -73 2 0 11 12 15 45 15 43 0 44 1 51 37 5 25 3 38 -5 41 -7 2 -11 31
-11 78 0 85 10 93 51 41z m-461 -254 c3 -3 5 -10 5 -16 0 -7 17 -12 43 -12 42
0 42 0 42 -37 0 -21 -4 -38 -10 -38 -5 0 -10 -15 -10 -33 0 -47 -29 -127 -46
-127 -8 0 -14 -8 -14 -18 0 -18 -49 -62 -70 -62 -5 0 -10 -6 -10 -14 0 -8 -8
-17 -17 -20 -21 -7 -41 -25 -142 -131 -51 -53 -76 -73 -82 -64 -10 18 -42 -58
-39 -96 1 -16 2 -42 1 -57 0 -23 3 -26 20 -20 11 5 21 12 21 17 1 6 14 18 29
27 16 10 29 22 29 28 0 5 5 10 10 10 6 0 10 -7 10 -16 0 -21 19 -7 30 22 5 13
29 35 52 50 24 15 48 32 53 39 17 19 83 65 94 65 6 0 11 3 11 8 0 4 18 15 40
25 22 9 40 24 40 32 0 8 7 15 15 15 8 0 15 -4 15 -10 0 -9 -23 -67 -41 -102
-5 -10 -9 -23 -9 -29 0 -6 -13 -30 -28 -53 -16 -23 -32 -60 -35 -81 -3 -21
-11 -41 -16 -44 -6 -4 -13 -27 -17 -51 -4 -25 -27 -85 -52 -135 -24 -49 -46
-108 -48 -130 -1 -22 -10 -45 -19 -51 -9 -6 -17 -20 -19 -30 -12 -58 -21 -82
-41 -109 -12 -16 -26 -41 -30 -54 -4 -13 -23 -54 -42 -90 -75 -139 -113 -223
-113 -244 0 -10 -4 -17 -10 -17 -5 0 -12 -11 -16 -25 -3 -14 -9 -25 -13 -25
-3 0 -15 -17 -26 -37 -42 -82 -73 -110 -90 -83 -3 5 -1 36 4 67 15 85 17 366
3 371 -15 5 -16 137 -1 183 18 56 38 95 54 109 8 7 15 18 15 25 0 8 12 27 26
44 37 44 43 106 22 226 -9 55 -22 101 -27 103 -5 2 -20 12 -33 24 -12 11 -41
32 -63 46 -80 51 -144 138 -145 197 0 22 128 165 148 165 6 0 12 4 12 9 0 10
142 101 188 120 17 7 32 17 32 22 0 5 5 9 11 9 6 0 22 9 35 19 14 11 43 22 65
26 22 4 43 13 45 20 3 7 23 15 45 19 25 4 39 12 39 21 0 11 8 13 33 8 17 -3
34 -8 37 -10z m650 -1233 c0 -5 -4 -10 -10 -10 -5 0 -10 5 -10 10 0 6 5 10 10
10 6 0 10 -4 10 -10z m-51 -64 c8 -10 9 -16 1 -21 -12 -7 -42 19 -33 29 10 10
20 7 32 -8z m-207 -178 c-9 -9 -15 -9 -24 0 -9 9 -7 12 12 12 19 0 21 -3 12
-12z m-922 -392 c0 -2 -6 -15 -13 -30 -16 -29 -27 -24 -27 11 0 16 6 23 20 23
11 0 20 -2 20 -4z"/>
<path d="M8305 6640 c3 -5 8 -10 11 -10 2 0 4 5 4 10 0 6 -5 10 -11 10 -5 0
-7 -4 -4 -10z"/>
<path d="M16028 10133 c7 -3 16 -2 19 1 4 3 -2 6 -13 5 -11 0 -14 -3 -6 -6z"/>
<path d="M5525 9954 c-22 -8 -51 -19 -65 -24 -39 -13 -131 -58 -175 -85 -22
-14 -50 -31 -62 -37 -13 -6 -23 -17 -23 -24 0 -6 -6 -14 -14 -17 -23 -9 -26
-46 -5 -52 10 -4 19 -15 19 -25 0 -26 57 -80 85 -80 12 0 28 -7 35 -15 7 -8
17 -15 22 -15 5 0 25 -16 45 -35 54 -52 92 -59 283 -50 193 9 241 8 292 -6 39
-10 45 -18 29 -34 -5 -6 -13 -49 -17 -96 -5 -70 -3 -93 10 -119 9 -18 16 -43
16 -56 0 -12 4 -24 9 -26 5 -1 11 -16 13 -33 3 -28 -2 -32 -89 -80 -51 -27
-93 -56 -93 -62 0 -7 -11 -13 -23 -13 -32 0 -56 -29 -59 -71 -2 -42 21 -318
32 -377 8 -47 0 -100 -25 -149 -9 -18 -14 -37 -11 -42 4 -5 2 -12 -4 -16 -13
-8 -13 -45 0 -45 6 0 10 -17 10 -38 0 -21 5 -43 12 -50 9 -9 9 -12 0 -12 -7 0
-12 -5 -12 -12 0 -6 -9 -21 -20 -33 -17 -18 -19 -27 -11 -48 6 -15 15 -27 21
-27 5 0 10 -13 10 -28 0 -15 5 -33 12 -40 9 -9 9 -15 0 -24 -7 -7 -12 -18 -12
-26 0 -19 69 -82 91 -82 15 0 19 -8 19 -36 0 -27 -8 -43 -35 -68 -19 -19 -35
-38 -35 -45 0 -6 -9 -11 -20 -11 -12 0 -31 -16 -48 -40 -15 -21 -33 -39 -39
-40 -7 0 -13 -11 -13 -25 0 -14 -4 -25 -10 -25 -5 0 -12 -11 -16 -24 -6 -26
29 -86 51 -86 17 0 55 -44 55 -63 0 -9 4 -17 9 -17 13 0 24 -54 26 -130 2 -72
18 -143 34 -148 6 -2 11 -11 11 -20 0 -9 10 -36 22 -59 19 -36 28 -43 53 -44
16 0 24 -3 18 -6 -7 -2 -13 -12 -13 -21 0 -12 3 -13 12 -4 7 7 18 12 26 12 8
0 22 8 31 19 9 10 32 26 51 36 19 10 37 21 40 25 9 12 139 100 148 100 6 0 12
6 15 13 3 7 24 26 48 42 24 17 51 38 61 48 10 9 23 17 29 17 6 0 30 19 54 43
33 33 45 54 55 97 13 59 14 51 -35 189 -19 51 -33 256 -23 325 3 25 15 65 26
89 23 51 39 107 47 166 8 58 30 99 77 140 21 18 38 41 38 50 0 9 4 21 9 27 5
5 21 45 36 89 24 69 28 96 29 201 l1 121 -42 44 c-49 50 -46 38 -43 225 2 125
-1 154 -25 250 -32 129 -89 253 -147 319 -81 92 -318 226 -479 270 -88 25
-346 75 -379 74 -8 0 -33 -7 -55 -15z"/>
<path d="M16736 9831 c-4 -5 -2 -12 3 -15 5 -4 12 -2 15 3 4 5 2 12 -3 15 -5
4 -12 2 -15 -3z"/>
<path d="M17160 9691 c0 -11 4 -21 9 -21 18 0 21 18 6 30 -13 10 -15 9 -15 -9z"/>
<path d="M17343 9313 c-18 -7 -16 -23 2 -23 8 0 15 7 15 15 0 8 -1 15 -2 14
-2 0 -9 -3 -15 -6z"/>
<path d="M11563 9297 c-24 -6 -43 -14 -43 -18 0 -4 -26 -11 -57 -14 -98 -11
-95 -9 -75 -63 24 -63 18 -89 -25 -114 -31 -19 -34 -24 -29 -53 9 -47 -14 -61
-99 -64 -105 -3 -261 -63 -283 -109 -21 -45 -8 -52 92 -48 56 3 107 11 131 22
44 18 173 28 244 18 24 -4 52 -15 62 -25 11 -11 24 -19 29 -19 6 0 10 -13 10
-28 0 -15 5 -33 12 -40 9 -9 9 -12 0 -12 -15 0 -16 -27 -1 -32 5 -2 11 -19 11
-38 0 -19 7 -47 14 -62 8 -14 10 -28 5 -30 -4 -2 -10 -24 -13 -51 -5 -43 -3
-49 24 -72 16 -13 65 -41 108 -62 48 -23 80 -44 80 -53 0 -8 11 -37 25 -65 36
-74 35 -79 -27 -70 -186 29 -344 -8 -413 -95 -11 -14 -30 -35 -42 -46 -13 -12
-23 -26 -23 -32 0 -6 -6 -12 -12 -15 -10 -3 -13 -51 -13 -194 0 -170 2 -191
18 -208 30 -30 39 -64 22 -81 -8 -9 -15 -27 -15 -42 0 -15 -9 -56 -20 -92 -25
-82 -25 -107 0 -120 33 -18 23 -38 -35 -71 -54 -30 -69 -49 -40 -49 8 0 15 -4
15 -10 0 -5 25 -10 55 -10 30 0 65 -6 76 -12 17 -10 23 -10 26 0 10 27 83 0
83 -32 0 -13 -28 -36 -43 -36 -17 0 -77 -40 -119 -79 -29 -27 -30 -29 -12 -39
11 -6 36 -13 57 -17 20 -4 40 -11 43 -16 3 -5 14 -9 25 -9 16 0 19 -7 19 -40
0 -29 4 -40 15 -40 11 0 15 -11 15 -40 0 -29 -4 -40 -15 -40 -11 0 -15 -11
-15 -40 0 -22 -4 -40 -10 -40 -5 0 -10 -9 -10 -20 0 -12 -7 -31 -15 -43 -13
-20 -13 -27 3 -60 15 -33 34 -44 66 -38 5 1 6 -5 2 -14 -3 -9 -6 -28 -6 -41 0
-19 -5 -24 -25 -24 -22 0 -25 -4 -25 -40 0 -22 5 -40 10 -40 6 0 10 -17 10
-37 0 -32 7 -44 50 -83 l49 -45 3 -75 c6 -149 -1 -240 -17 -240 -11 0 -15 -11
-15 -40 0 -33 3 -40 19 -40 14 0 21 8 23 28 2 23 8 28 36 30 27 3 40 -3 63
-27 16 -17 33 -31 38 -31 11 0 21 -25 21 -51 0 -11 5 -17 10 -14 6 3 10 2 10
-4 0 -17 51 -46 58 -34 4 6 41 14 82 18 41 4 78 12 81 17 3 5 18 -3 32 -18 15
-15 38 -33 51 -39 21 -11 25 -10 35 11 6 14 14 44 17 67 9 61 33 145 57 196
18 39 19 50 9 99 -6 30 -18 63 -27 72 -8 9 -15 21 -15 27 0 6 -6 13 -13 16
-16 6 -67 109 -67 135 0 50 -77 148 -142 180 l-33 17 -6 105 c-4 80 -2 108 8
116 7 6 13 17 13 24 0 6 29 42 65 78 36 36 65 71 65 78 0 7 6 17 14 21 26 15
76 244 76 352 0 6 17 13 38 16 20 4 44 9 53 11 20 5 154 182 185 245 49 96 64
166 64 297 0 130 -7 158 -50 197 -41 37 -51 71 -50 163 1 48 -3 121 -8 162 -6
41 -9 77 -7 81 3 3 0 21 -6 40 -6 19 -19 70 -30 113 -17 70 -52 152 -71 166
-3 3 -10 19 -14 35 -4 17 -10 35 -14 40 -4 6 -10 23 -14 39 -4 15 -25 56 -46
89 -22 34 -40 72 -40 85 0 15 -16 40 -45 68 -25 24 -48 44 -52 44 -3 0 -20 16
-37 36 -34 40 -185 118 -246 127 -19 3 -42 7 -50 10 -8 2 -34 -1 -57 -6z m211
-384 c31 -39 37 -60 20 -74 -11 -9 -24 -8 -62 6 -87 33 -115 67 -69 85 45 18
88 12 111 -17z m184 -1086 l22 -23 -20 -40 c-25 -50 -44 -74 -59 -74 -6 0 -11
-5 -11 -10 0 -29 -63 -138 -94 -164 -20 -16 -36 -38 -36 -48 0 -10 -7 -18 -16
-18 -14 0 -16 -8 -10 -53 3 -30 3 -57 0 -60 -13 -12 -54 26 -54 50 0 13 -4 22
-9 18 -15 -9 -151 135 -151 160 0 12 -3 25 -7 29 -9 8 -16 50 -17 95 -1 34 -1
34 69 53 39 10 86 21 105 24 19 3 44 9 55 13 99 40 133 51 147 51 9 0 20 5 23
10 11 17 41 11 63 -13z m-161 -752 c-3 -29 -12 -66 -20 -81 l-15 -28 -11 39
c-6 23 -7 41 -1 45 5 3 5 11 0 19 -5 9 -3 23 3 35 30 54 51 40 44 -29z m-197
-549 c0 -2 -7 -6 -15 -10 -8 -3 -15 -1 -15 4 0 6 7 10 15 10 8 0 15 -2 15 -4z
m240 -826 c0 -5 -4 -10 -10 -10 -5 0 -10 5 -10 10 0 6 5 10 10 10 6 0 10 -4
10 -10z"/>
<path d="M13280 9269 c0 -5 5 -7 10 -4 6 3 10 8 10 11 0 2 -4 4 -10 4 -5 0
-10 -5 -10 -11z"/>
<path d="M17397 9204 c-11 -14 -16 -28 -12 -32 8 -8 35 26 35 45 0 18 -2 16
-23 -13z"/>
<path d="M13253 9154 c-3 -8 2 -26 11 -40 11 -15 15 -33 10 -47 -6 -21 -6 -21
9 -2 13 17 13 22 0 42 -20 31 -7 47 18 22 11 -11 24 -17 29 -14 12 8 -26 45
-51 50 -11 2 -22 -2 -26 -11z"/>
<path d="M13170 9076 c0 -8 -8 -19 -17 -25 -15 -8 -16 -12 -5 -22 10 -11 12
-10 12 4 0 18 35 24 45 7 3 -5 10 -10 16 -10 18 0 9 16 -21 38 -23 18 -30 19
-30 8z"/>
<path d="M13160 8984 c0 -8 5 -12 10 -9 6 4 8 11 5 16 -9 14 -15 11 -15 -7z"/>
<path d="M5380 8918 c-35 -9 -99 -71 -100 -96 0 -7 -5 -21 -12 -31 -13 -22 -5
-49 19 -58 9 -4 24 -13 32 -20 38 -34 94 -63 120 -63 36 0 117 72 130 115 12
44 -2 135 -24 151 -22 16 -112 17 -165 2z"/>
<path d="M13111 8634 c0 -11 3 -14 6 -6 3 7 2 16 -1 19 -3 4 -6 -2 -5 -13z"/>
<path d="M7464 8463 c-22 -34 -32 -169 -15 -202 17 -30 33 -26 67 16 16 20 41
49 55 64 41 42 59 71 59 95 0 18 -7 22 -52 27 -29 4 -54 11 -56 17 -7 20 -40
10 -58 -17z"/>
<path d="M17557 8390 c-3 -11 -1 -20 4 -20 5 0 9 2 9 4 0 2 3 11 6 20 3 9 2
16 -4 16 -5 0 -12 -9 -15 -20z"/>
<path d="M17483 8363 c-14 -5 -18 -33 -5 -33 10 1 42 26 42 34 0 7 -19 7 -37
-1z"/>
<path d="M14155 8269 c-22 -4 -59 -8 -81 -8 -24 -1 -47 -7 -54 -16 -7 -8 -11
-15 -9 -16 2 0 20 -2 39 -4 66 -7 105 -17 148 -38 43 -22 52 -33 30 -34 -44
-2 -94 -14 -128 -30 -37 -17 -52 -33 -30 -33 6 0 10 -7 10 -15 0 -17 60 -23
124 -12 5 1 9 -11 10 -28 0 -27 -4 -31 -39 -37 -75 -13 -94 -20 -126 -49 -18
-16 -30 -29 -26 -29 13 0 57 24 57 31 0 15 107 30 142 20 25 -7 27 -9 11 -10
-13 -1 -23 -7 -23 -16 0 -8 -7 -15 -15 -15 -8 0 -15 -6 -15 -14 0 -8 -12 -17
-26 -20 -14 -4 -46 -16 -70 -27 -25 -12 -53 -18 -66 -15 -13 3 -17 3 -10 0 9
-4 5 -13 -14 -29 -31 -27 -27 -55 9 -55 27 0 77 -21 77 -33 0 -5 8 -6 18 -3 9
3 24 1 32 -4 12 -8 13 -13 3 -29 -9 -14 -10 -28 -3 -46 8 -22 15 -25 57 -25
27 1 66 7 88 15 22 8 47 15 56 15 9 0 28 9 41 20 14 10 28 17 30 14 3 -2 31
21 62 53 l58 58 -6 55 c-3 30 -8 66 -9 80 -2 14 -5 36 -5 49 -2 16 -7 21 -16
18 -10 -4 -13 -1 -10 7 6 15 -51 76 -71 76 -15 0 -25 32 -18 60 4 14 14 20 32
20 l26 0 -25 20 c-14 11 -30 20 -37 20 -7 0 -17 9 -23 20 -6 11 -20 20 -31 20
-11 0 -28 4 -37 9 -27 13 -93 18 -137 10z m15 -458 c13 -26 13 -28 -5 -35 -17
-6 -65 12 -65 25 0 10 31 28 47 29 7 0 17 -9 23 -19z"/>
<path d="M14560 8155 c0 -8 4 -15 9 -15 5 0 11 7 15 15 3 9 0 15 -9 15 -8 0
-15 -7 -15 -15z"/>
<path d="M10821 8099 c-57 -11 -70 -23 -53 -50 11 -17 9 -23 -20 -50 -63 -56
-79 -69 -86 -69 -8 0 -42 -57 -42 -71 0 -17 55 3 76 28 l21 25 39 -37 c45 -43
119 -71 160 -61 14 4 40 21 57 37 25 25 29 35 24 65 -5 32 -56 94 -77 94 -17
0 -19 45 -3 62 15 17 14 18 -10 18 -15 0 -27 5 -27 10 0 6 -3 10 -7 9 -5 -1
-28 -5 -52 -10z"/>
<path d="M17410 8020 c0 -5 5 -10 10 -10 6 0 10 5 10 10 0 6 -4 10 -10 10 -5
0 -10 -4 -10 -10z"/>
<path d="M12945 7891 c-3 -5 -1 -12 5 -16 5 -3 10 1 10 9 0 18 -6 21 -15 7z"/>
<path d="M13040 7515 c0 -8 7 -15 15 -15 9 0 12 6 9 15 -4 8 -10 15 -15 15 -5
0 -9 -7 -9 -15z"/>
<path d="M6686 7361 c-3 -4 7 -44 23 -88 16 -43 34 -115 40 -158 6 -43 16 -84
22 -92 13 -15 86 -17 123 -3 44 16 44 52 -3 123 -22 34 -57 81 -78 103 -21 23
-53 60 -72 83 -35 42 -46 48 -55 32z"/>
<path d="M10830 7355 c0 -8 2 -15 4 -15 2 0 6 7 10 15 3 8 1 15 -4 15 -6 0
-10 -7 -10 -15z"/>
<path d="M14320 7319 c0 -11 -4 -17 -10 -14 -5 3 -10 1 -10 -4 0 -6 -9 -11
-20 -11 -13 0 -20 -7 -20 -19 0 -11 -9 -22 -19 -26 -24 -7 -36 -35 -16 -35 8
0 15 -6 15 -14 0 -8 7 -16 15 -20 9 -3 15 0 15 10 0 8 7 17 15 20 8 4 15 14
15 24 0 10 5 20 12 22 11 4 24 88 14 88 -4 0 -6 -9 -6 -21z"/>
<path d="M10792 7318 c-14 -14 -16 -28 -3 -28 9 0 24 30 18 36 -2 2 -9 -2 -15
-8z"/>
<path d="M7503 7140 c-48 -106 -186 -648 -229 -900 -19 -108 -30 -208 -44
-385 -7 -77 -14 -147 -18 -155 -6 -15 -11 -150 -14 -372 -1 -65 -4 -118 -8
-118 -6 0 -19 -141 -26 -295 -5 -106 -26 -265 -35 -265 -5 0 -9 -9 -9 -20 0
-17 -7 -20 -40 -20 -33 0 -40 3 -40 20 0 11 -4 20 -10 20 -5 0 -10 -18 -10
-40 0 -33 -3 -40 -20 -40 -17 0 -20 -7 -20 -40 0 -33 -3 -40 -20 -40 -17 0
-20 7 -20 40 0 33 -3 40 -20 40 -17 0 -20 7 -20 40 0 36 -2 40 -25 40 l-25 0
0 -120 c0 -105 2 -120 17 -120 14 0 15 -12 10 -120 l-7 -120 45 0 c26 0 45 -5
45 -11 0 -6 14 -24 30 -41 23 -23 30 -39 30 -69 0 -21 5 -39 10 -39 6 0 10
-18 10 -40 0 -22 4 -40 9 -40 4 0 14 -21 20 -47 7 -27 19 -63 27 -80 8 -19 9
-33 4 -33 -6 0 -10 -18 -10 -40 0 -29 4 -40 15 -40 8 0 15 -7 15 -15 0 -9 7
-27 16 -40 15 -23 15 -25 0 -25 -13 0 -16 -12 -16 -71 0 -44 4 -68 10 -64 6 3
10 17 10 31 0 15 6 24 15 24 18 0 18 -8 1 -40 -8 -14 -12 -38 -9 -57 6 -38
-25 -182 -44 -201 -6 -7 -10 -19 -6 -27 3 -9 -10 -32 -31 -55 -36 -40 -53 -80
-42 -99 8 -12 -26 -138 -48 -183 -9 -17 -16 -37 -16 -45 0 -13 -14 -62 -59
-208 -18 -55 -42 -137 -72 -242 -7 -24 -16 -43 -21 -43 -4 0 -8 -8 -8 -18 0
-11 -14 -57 -31 -103 -17 -46 -40 -111 -50 -144 -24 -81 -76 -227 -87 -245 -5
-8 -15 -40 -23 -70 -7 -30 -16 -57 -19 -60 -3 -3 -12 -25 -20 -50 -7 -25 -19
-52 -25 -60 -6 -8 -19 -38 -28 -67 -15 -50 -68 -182 -107 -268 -10 -22 -24
-57 -31 -78 -7 -20 -17 -37 -21 -37 -4 0 -8 -6 -8 -14 0 -18 -57 -135 -77
-157 -8 -9 -18 -30 -23 -45 l-8 -29 -1 35 c-1 26 -4 31 -11 20 -5 -8 -10 -25
-10 -37 0 -12 -13 -36 -30 -54 -22 -24 -26 -35 -17 -41 8 -5 8 -11 2 -15 -6
-5 -16 -26 -24 -48 -13 -40 -83 -158 -108 -183 -7 -7 -13 -17 -13 -20 0 -4
-10 -18 -23 -32 -12 -14 -33 -41 -47 -59 -13 -19 -39 -50 -57 -69 -18 -18 -33
-38 -33 -43 0 -5 -7 -9 -15 -9 -8 0 -15 -7 -15 -15 0 -8 -5 -15 -10 -15 -13 0
-70 -54 -70 -67 0 -6 -30 -25 -67 -44 -37 -19 -87 -49 -110 -67 -24 -17 -47
-32 -51 -32 -4 0 -25 -18 -47 -40 -22 -23 -42 -35 -45 -29 -4 6 -11 4 -20 -6
-11 -13 128 -15 1418 -15 l1430 0 7 128 c3 70 9 135 12 145 3 11 36 33 79 53
41 19 74 39 74 45 0 5 -21 21 -47 35 -27 14 -97 53 -158 86 -60 34 -127 70
-148 81 -20 12 -45 32 -54 46 -9 14 -125 134 -257 266 -141 140 -249 257 -261
280 -31 62 -82 144 -126 205 -85 117 -190 323 -239 470 -41 122 -52 478 -17
546 21 41 54 180 72 304 24 164 40 215 93 292 81 120 116 180 162 283 24 55
47 102 50 105 14 13 44 77 55 119 7 25 36 102 64 169 28 68 51 131 51 140 -1
27 -73 164 -93 176 -14 9 -21 7 -32 -9 -8 -11 -19 -25 -25 -32 -5 -7 -10 -15
-10 -18 0 -3 -25 -40 -55 -80 -30 -41 -55 -79 -55 -83 0 -14 -57 -60 -77 -64
-32 -5 -18 48 37 138 27 46 50 89 50 94 0 6 3 10 8 10 4 0 18 24 32 53 35 76
39 179 10 252 -17 41 -21 68 -17 102 6 54 28 77 88 93 21 6 39 13 39 16 0 3
-11 24 -25 48 -41 70 -83 181 -98 263 -33 169 -54 799 -30 893 6 25 16 86 22
135 6 50 16 119 22 155 5 36 17 108 25 160 8 52 19 178 24 280 6 101 14 187
19 190 9 6 25 199 25 300 0 36 -10 106 -22 155 -12 50 -23 101 -25 115 l-3 25
-11 -25z"/>
<path d="M10881 7123 c-1 -7 -9 -13 -20 -13 -23 0 -43 -23 -36 -42 6 -15 56
-48 74 -48 15 0 13 49 -4 85 -7 17 -14 24 -14 18z"/>
<path d="M13913 7084 c-10 -26 11 -78 37 -91 13 -6 27 -10 31 -7 7 4 -48 114
-57 114 -3 0 -7 -7 -11 -16z"/>
<path d="M14223 7074 c-7 -12 -10 -24 -7 -26 7 -7 -36 -78 -47 -78 -12 0 -11
-37 1 -61 7 -13 7 -19 0 -19 -5 0 -10 -5 -10 -11 0 -12 26 -76 41 -99 5 -8 12
-23 15 -32 9 -26 47 -22 59 5 12 25 49 34 71 16 9 -7 26 -13 40 -14 22 -1 24
3 24 40 0 36 -4 42 -38 57 -20 10 -55 22 -77 27 -22 5 -33 10 -25 10 12 1 13
3 1 10 -11 7 -10 20 7 77 18 59 19 71 7 83 -11 11 -17 12 -29 2 -12 -10 -15
-8 -18 11 l-3 23 -12 -21z"/>
<path d="M16710 7080 c0 -5 5 -10 10 -10 6 0 10 5 10 10 0 6 -4 10 -10 10 -5
0 -10 -4 -10 -10z"/>
<path d="M13171 6904 c0 -11 3 -14 6 -6 3 7 2 16 -1 19 -3 4 -6 -2 -5 -13z"/>
<path d="M7814 6758 c-40 -18 -74 -128 -40 -128 8 0 17 10 21 23 9 31 28 71
38 78 5 4 7 13 5 21 -2 12 -8 13 -24 6z"/>
<path d="M4672 6715 c-22 -36 -20 -65 3 -65 11 0 31 88 21 97 -2 2 -13 -12
-24 -32z"/>
<path d="M5691 6584 c-41 -63 -56 -110 -41 -129 7 -9 11 -39 9 -77 -3 -60 15
-128 33 -128 5 0 8 -8 8 -18 0 -22 -35 -62 -54 -62 -7 0 -21 -18 -31 -41 -16
-34 -17 -45 -7 -73 18 -48 15 -71 -14 -126 -15 -29 -29 -78 -35 -120 -10 -80
-30 -126 -59 -135 -40 -13 -78 -8 -109 14 l-30 22 -7 -28 c-11 -42 -9 -79 9
-173 9 -47 17 -131 17 -188 0 -120 14 -187 43 -207 19 -13 22 -12 35 8 36 54
67 60 113 19 26 -23 31 -36 36 -88 5 -55 3 -66 -21 -100 -40 -60 -30 -125 25
-156 50 -29 62 -24 86 40 42 110 45 128 37 235 -8 125 -14 141 -68 193 -32 30
-51 61 -76 124 -28 74 -31 94 -28 161 3 74 4 78 41 111 20 19 37 40 37 47 0
23 42 89 59 94 9 2 38 46 65 98 53 103 50 78 30 272 -5 44 -2 67 11 98 10 21
22 39 27 39 4 0 8 8 8 19 0 10 7 24 16 32 25 21 42 71 33 97 -18 49 -125 172
-150 172 -9 0 -31 -21 -48 -46z"/>
<path d="M4276 6045 c-3 -9 -6 -29 -6 -43 0 -16 -8 -32 -19 -39 -11 -7 -22
-27 -26 -45 -4 -18 -13 -44 -20 -58 -28 -57 -45 -133 -51 -228 -6 -85 -5 -102
7 -102 18 0 39 72 39 130 0 69 32 205 57 246 7 11 10 24 6 27 -3 4 1 15 9 24
20 23 31 74 19 91 -6 11 -10 10 -15 -3z"/>
<path d="M10477 6008 c-3 -13 -13 -42 -21 -66 -17 -46 -16 -71 11 -210 16 -82
32 -110 54 -97 12 8 7 296 -7 363 -7 37 -29 43 -37 10z"/>
<path d="M5936 5906 c-3 -32 0 -102 10 -168 8 -62 19 -142 23 -178 5 -36 18
-103 29 -150 11 -47 27 -121 37 -165 9 -44 23 -95 31 -113 8 -18 14 -44 14
-57 0 -14 5 -25 10 -25 15 0 12 200 -4 305 -41 260 -99 551 -118 588 -15 30
-25 19 -32 -37z"/>
<path d="M4836 5798 c-4 -28 -13 -66 -20 -83 -8 -18 -17 -54 -21 -82 -5 -40
-3 -54 10 -67 20 -19 39 -21 52 -3 26 32 19 287 -8 287 -3 0 -10 -23 -13 -52z"/>
<path d="M14545 5692 c-11 -2 -24 -8 -30 -12 -5 -5 -39 -16 -75 -24 -63 -16
-99 -29 -185 -66 -22 -9 -58 -23 -80 -30 -22 -7 -56 -23 -75 -35 -19 -12 -64
-36 -100 -54 -36 -18 -72 -38 -80 -45 -8 -6 -28 -18 -45 -26 -16 -8 -32 -17
-35 -20 -10 -10 -45 -31 -62 -36 -10 -4 -18 -10 -18 -15 0 -5 -15 -16 -32 -25
-18 -9 -35 -20 -38 -24 -3 -3 -30 -26 -60 -49 -92 -72 -270 -234 -270 -245 0
-2 -22 -27 -50 -55 -27 -28 -50 -54 -50 -56 0 -3 -20 -31 -44 -62 -55 -73
-136 -204 -136 -219 0 -7 -12 -35 -26 -63 -14 -29 -28 -68 -31 -89 -8 -51 -19
-61 -56 -56 -45 7 -59 -7 -59 -55 1 -28 -3 -41 -11 -38 -30 9 -8 100 58 244 8
17 15 38 15 46 0 9 4 18 9 21 5 3 11 20 14 38 14 88 42 189 58 213 3 6 9 27
13 48 6 30 4 39 -10 44 -18 7 -66 -41 -144 -143 -21 -28 -44 -57 -52 -65 -7
-8 -19 -25 -26 -39 -15 -31 -35 -63 -43 -70 -4 -3 -16 -24 -28 -47 -12 -24
-26 -43 -31 -43 -6 0 -10 -7 -10 -15 0 -8 -11 -22 -25 -31 -14 -9 -25 -22 -25
-29 0 -7 -6 -18 -14 -24 -18 -15 -31 -82 -27 -142 1 -26 -2 -50 -8 -53 -9 -6
-14 -78 -11 -170 0 -16 -6 -81 -14 -145 -20 -150 -19 -401 0 -401 10 0 12 -9
8 -32 -5 -30 -4 -31 7 -13 7 11 14 29 15 40 4 38 5 40 14 20 5 -11 9 -14 9 -7
1 7 16 45 35 85 43 90 166 465 166 504 0 11 9 30 20 43 11 13 20 29 20 37 0 9
9 14 23 13 37 -3 47 -1 47 14 0 8 7 17 16 20 25 10 26 7 4 -16 -11 -12 -21
-33 -21 -47 -1 -17 -3 -20 -6 -8 -5 21 -17 22 -32 3 -9 -10 -9 -15 -1 -18 12
-4 -10 -96 -45 -188 -9 -25 -18 -54 -20 -65 -2 -11 -13 -48 -24 -82 -10 -35
-15 -63 -10 -63 5 0 9 5 9 12 0 6 3 8 6 5 4 -4 1 -13 -5 -21 -7 -8 -14 -27
-17 -42 -8 -44 -26 -66 -19 -24 4 30 4 32 -5 11 -6 -13 -8 -32 -5 -41 7 -21
-32 -128 -53 -149 -13 -13 -14 -12 -7 9 4 14 12 31 18 38 11 14 1 30 -12 16
-4 -5 -14 -25 -21 -44 -8 -19 -38 -86 -67 -149 -29 -62 -53 -116 -53 -120 -1
-3 -9 -24 -20 -46 -11 -22 -19 -46 -20 -54 0 -13 49 83 113 219 11 25 26 52
33 60 7 8 14 24 17 35 4 15 5 13 6 -7 0 -16 -2 -28 -6 -28 -5 0 -17 -21 -27
-48 -20 -49 -54 -124 -112 -250 -19 -40 -34 -75 -34 -78 0 -5 -20 -51 -55
-129 -21 -46 -35 -85 -31 -85 2 0 13 16 25 35 11 19 24 35 28 35 4 0 7 -33 6
-73 -1 -39 5 -105 13 -144 9 -40 12 -82 9 -93 -12 -36 4 -80 28 -80 79 0 168
65 162 117 -2 15 1 33 6 39 5 6 11 28 14 50 10 67 27 138 41 166 8 15 14 50
14 78 0 28 7 67 15 87 10 22 15 68 15 124 0 53 4 89 10 89 6 0 10 15 10 33 0
18 7 59 15 90 8 32 15 71 15 88 0 16 9 57 20 90 12 33 18 69 15 80 -4 11 -2
19 4 19 6 0 11 13 11 30 0 16 7 35 15 42 8 7 22 39 31 71 10 32 22 57 30 57
17 0 38 -37 23 -42 -6 -2 -8 -14 -4 -31 6 -22 10 -25 26 -16 32 17 68 85 84
157 7 37 28 93 45 124 17 31 42 96 56 145 38 130 74 237 85 248 5 5 9 16 9 25
0 8 8 24 17 35 14 17 15 18 9 2 -3 -10 -2 -27 4 -36 9 -17 0 -74 -65 -431 -9
-47 -18 -103 -20 -125 -7 -57 -23 -152 -34 -205 -11 -49 -14 -150 -5 -150 3 0
14 5 25 10 14 8 19 7 19 -2 0 -19 45 64 47 87 3 37 21 113 76 325 20 74 41
162 48 195 6 33 18 85 25 115 8 30 14 64 14 77 0 20 17 69 42 117 5 10 11 45
13 79 5 67 13 76 65 78 19 0 29 3 23 6 -23 9 -14 25 9 17 21 -6 22 -5 8 11
-53 64 -216 56 -332 -15 -26 -16 -45 -23 -42 -16 3 8 18 19 34 26 15 6 37 22
48 34 17 20 33 24 121 30 57 4 99 12 96 17 -4 5 -2 9 3 9 11 0 11 4 18 106 5
67 3 86 -11 108 -10 15 -24 25 -31 22 -23 -9 -15 13 17 49 31 33 56 38 45 9
-9 -23 5 -74 20 -74 8 0 14 -5 14 -11 0 -5 15 1 33 15 19 14 37 23 40 19 11
-10 8 -58 -9 -199 -16 -130 -16 -130 6 -173 48 -95 36 -190 -44 -350 -46 -91
-77 -214 -58 -233 7 -7 14 14 22 64 15 95 17 101 40 125 37 41 111 158 122
196 9 29 9 49 0 83 -8 28 -9 52 -3 68 7 16 5 41 -5 77 -8 30 -18 99 -21 155
-7 119 11 187 77 297 22 36 40 69 40 72 0 11 -64 -6 -82 -22 -10 -9 -27 -35
-39 -59 -24 -51 -43 -56 -58 -14 -5 17 -16 30 -22 30 -31 0 114 115 232 185
10 6 43 25 74 44 58 34 81 35 52 3 -24 -26 -21 -35 9 -28 22 6 24 4 15 -11 -5
-10 -18 -27 -28 -39 -10 -11 -22 -27 -28 -36 -38 -58 -70 -108 -90 -138 -13
-19 -31 -59 -41 -88 -21 -68 -14 -194 15 -270 54 -137 -1 -396 -108 -511 -10
-12 -19 -12 -43 -3 -41 15 -71 -3 -64 -39 3 -14 0 -31 -5 -36 -6 -6 -12 -30
-13 -55 -2 -24 -8 -54 -15 -65 -6 -12 -11 -27 -11 -33 0 -18 20 0 31 27 5 14
12 23 15 20 11 -11 -30 -66 -54 -72 -20 -5 -23 -10 -18 -33 3 -15 3 -21 0 -14
-9 20 -27 14 -21 -7 3 -13 1 -18 -8 -14 -21 7 -68 -74 -61 -106 5 -25 5 -25
-6 -4 l-11 23 -13 -26 c-8 -15 -14 -30 -14 -34 0 -4 -15 -24 -33 -44 -19 -20
-43 -55 -56 -79 -12 -23 -41 -76 -66 -117 -24 -41 -77 -140 -117 -220 -40 -80
-75 -147 -78 -150 -3 -3 -43 -80 -89 -173 -46 -92 -96 -184 -112 -203 -16 -20
-29 -41 -29 -45 0 -18 17 -8 39 22 16 21 26 27 31 20 5 -9 9 -9 17 1 15 20 24
50 13 43 -6 -3 -10 -13 -10 -21 0 -8 -4 -14 -10 -14 -5 0 -10 4 -10 9 0 15 43
91 52 91 12 0 10 -18 -3 -22 -7 -2 -10 -10 -7 -18 3 -9 15 6 31 38 27 54 86
126 72 87 -4 -11 -12 -33 -17 -48 -6 -15 -7 -31 -4 -34 9 -10 38 26 66 81 14
27 45 69 69 95 24 25 40 40 37 34 -4 -7 -2 -13 3 -13 6 0 11 14 11 31 0 17 5
39 11 50 8 16 7 30 -4 58 -10 24 -12 43 -6 52 12 20 11 32 -2 23 -9 -5 -10 1
-5 20 9 36 -6 32 -25 -7 -61 -124 -111 -217 -119 -222 -6 -4 -10 -15 -10 -25
0 -10 -7 -25 -15 -34 -8 -8 -15 -19 -15 -25 0 -13 -20 -50 -37 -69 -7 -7 -13
-21 -14 -30 0 -9 -3 -12 -5 -6 -3 7 8 38 24 70 16 33 37 75 46 94 10 19 27 53
38 75 12 22 50 99 86 170 36 72 80 154 99 183 18 29 33 56 33 61 0 14 40 54
47 47 4 -4 2 -10 -4 -14 -6 -4 -32 -47 -58 -97 -25 -49 -51 -94 -56 -99 -5 -6
-9 -17 -9 -25 1 -23 25 10 58 79 15 30 30 57 35 58 4 2 7 8 7 14 0 6 14 30 30
55 17 24 37 57 45 74 19 35 28 36 43 7 10 -23 11 -23 11 4 1 19 15 42 42 70
23 24 53 58 67 76 19 25 28 30 38 21 8 -6 14 -24 14 -39 0 -14 3 -29 6 -33 13
-12 33 6 39 36 11 52 93 209 131 252 50 57 61 80 155 328 10 27 23 90 29 140
10 79 9 102 -5 162 -33 141 -36 181 -13 233 22 49 54 96 100 147 16 17 28 34
28 38 0 8 50 64 111 126 15 14 34 38 44 54 9 15 21 27 25 27 4 0 32 16 60 35
29 20 54 34 56 33 5 -5 -35 -167 -55 -228 -11 -30 -38 -107 -62 -170 -23 -63
-66 -187 -96 -275 l-54 -160 4 -140 c2 -77 14 -268 26 -425 12 -157 26 -382
31 -500 5 -118 14 -233 19 -255 29 -121 51 -236 57 -297 4 -37 9 -68 13 -68 6
0 23 30 60 107 26 55 18 85 -48 179 -40 57 -83 166 -83 209 0 28 36 108 64
143 10 12 10 14 1 9 -38 -23 -66 141 -62 360 2 102 -1 146 -10 156 -14 17 -25
227 -12 227 4 0 28 -13 52 -30 49 -33 91 -42 68 -14 -18 22 -17 17 -46 412 -7
96 6 129 56 138 20 4 53 16 73 27 46 25 54 57 43 161 -9 86 -9 75 5 211 18
182 20 190 50 224 16 17 33 31 39 31 6 0 13 16 17 36 9 46 -1 223 -12 233 -5
4 -18 6 -29 3z m-351 -407 c-4 -9 -16 -21 -28 -27 -20 -11 -20 -10 -6 8 13 17
31 33 37 34 1 0 0 -7 -3 -15z m-787 -511 c-3 -3 -12 -4 -19 -1 -8 3 -5 6 6 6
11 1 17 -2 13 -5z m-231 -211 c-20 -27 -63 -101 -96 -165 -33 -64 -64 -119
-70 -123 -15 -9 -12 11 4 28 8 8 19 32 25 53 15 53 79 165 121 214 49 55 59
50 16 -7z m139 -27 c-10 -14 -22 -26 -27 -26 -10 0 -3 16 20 43 22 25 27 13 7
-17z m-405 -286 c0 -5 -5 -10 -11 -10 -5 0 -7 5 -4 10 3 6 8 10 11 10 2 0 4
-4 4 -10z m90 -135 c0 -8 4 -15 8 -15 5 0 7 -13 4 -30 -2 -17 -10 -30 -18 -30
-21 0 -33 39 -20 67 12 26 26 30 26 8z m-170 -3 c0 -5 -7 -9 -15 -9 -8 0 -12
4 -9 9 3 4 9 8 15 8 5 0 9 -4 9 -8z m-10 -29 c0 -5 -5 -15 -10 -23 -8 -12 -10
-11 -10 8 0 12 5 22 10 22 6 0 10 -3 10 -7z m86 -90 c-14 -26 -15 -27 -16 -5
0 12 5 22 10 22 6 0 11 10 11 23 1 16 3 17 6 5 2 -9 -3 -29 -11 -45z m51 37
c-3 -11 -1 -20 3 -20 4 0 5 -10 2 -22 -6 -23 -6 -23 -12 2 -6 25 -2 60 7 60 3
0 3 -9 0 -20z m747 -25 c-26 -19 -31 -9 -8 16 11 12 20 16 22 9 2 -6 -4 -17
-14 -25z m-201 -236 c-24 -40 -43 -57 -43 -36 0 8 7 20 15 27 8 7 15 19 15 26
0 8 7 14 16 14 13 0 13 -4 -3 -31z m-633 6 c0 -8 -4 -15 -10 -15 -5 0 -7 7 -4
15 4 8 8 15 10 15 2 0 4 -7 4 -15z m564 -107 c-10 -19 -19 -28 -22 -20 -2 7 3
21 12 31 9 10 16 24 17 32 0 9 2 10 5 2 3 -6 -3 -27 -12 -45z"/>
<path d="M6800 5490 c0 -22 -5 -40 -11 -40 -7 0 -9 -20 -4 -62 3 -35 8 -107
11 -160 3 -54 10 -98 15 -98 5 0 9 18 9 40 0 22 5 40 10 40 6 0 10 18 10 40 0
22 -4 40 -10 40 -6 0 -10 47 -10 120 0 73 -4 120 -10 120 -5 0 -10 -18 -10
-40z"/>
<path d="M10517 5264 c3 -27 7 -51 9 -53 8 -9 3 75 -5 88 -5 8 -7 -5 -4 -35z"/>
<path d="M13875 5260 c-8 -13 15 -13 35 0 12 8 11 10 -7 10 -12 0 -25 -4 -28
-10z"/>
<path d="M10520 5127 c0 -46 4 -77 10 -77 10 0 4 139 -6 149 -2 2 -4 -30 -4
-72z"/>
<path d="M13392 5178 c-6 -6 -12 -19 -12 -27 0 -13 2 -13 16 1 9 9 15 21 13
27 -3 9 -8 8 -17 -1z"/>
<path d="M16983 5153 c-13 -2 -23 -8 -23 -12 0 -5 -14 -11 -32 -15 -56 -11
-24 -16 123 -20 93 -3 145 -8 147 -15 2 -6 8 -11 14 -11 6 0 6 6 -2 15 -7 8
-20 15 -29 15 -9 0 -21 4 -26 9 -14 12 -110 41 -132 40 -10 -1 -28 -4 -40 -6z"/>
<path d="M16765 5060 c11 -5 31 -9 45 -9 23 0 23 1 5 9 -11 5 -31 9 -45 9 -23
0 -23 -1 -5 -9z"/>
<path d="M13192 5005 c-5 -19 -6 -35 -2 -35 4 0 6 -10 4 -22 -3 -17 -1 -15 10
7 17 34 20 71 8 79 -5 3 -14 -10 -20 -29z"/>
<path d="M17280 5011 c0 -9 21 -17 103 -37 34 -8 35 -27 2 -42 -15 -7 -25 -20
-25 -33 0 -19 -16 -45 -62 -99 -7 -9 -18 -30 -25 -48 -10 -29 -9 -32 8 -32 11
0 18 4 15 9 -7 10 41 44 62 44 8 0 12 8 8 19 -3 14 0 18 11 14 22 -9 63 4 63
20 0 7 8 17 17 23 14 8 15 11 4 25 -8 9 -12 18 -10 19 2 1 11 8 20 15 23 18
89 -21 89 -51 0 -35 -12 -44 -62 -49 -26 -3 -54 -12 -62 -19 -8 -8 -21 -18
-28 -24 -85 -66 -185 -170 -260 -270 -50 -66 -94 -121 -99 -123 -5 -2 -9 -12
-9 -23 0 -10 -4 -19 -10 -19 -8 0 -51 -58 -70 -95 -21 -40 -94 -145 -101 -145
-5 0 -9 -8 -9 -19 0 -10 -11 -35 -25 -55 -14 -20 -25 -43 -25 -51 0 -8 -5 -17
-11 -21 -6 -3 -21 -28 -34 -55 -12 -27 -24 -47 -26 -44 -3 2 -15 -24 -28 -58
-13 -34 -31 -69 -40 -77 -9 -8 -17 -24 -17 -35 -2 -20 -23 -84 -95 -285 -53
-149 -128 -448 -154 -617 -4 -24 -10 -45 -15 -48 -4 -3 -11 -20 -14 -40 -4
-19 -19 -60 -33 -92 -15 -32 -27 -65 -28 -73 0 -9 -11 -16 -26 -18 l-26 -3 -6
-137 c-3 -75 -11 -170 -18 -210 -11 -61 -11 -75 0 -81 9 -6 10 -14 5 -22 -12
-19 -15 -139 -4 -139 5 0 14 19 21 43 6 23 17 60 25 82 7 22 18 74 23 115 28
209 42 297 61 387 11 54 27 132 35 175 7 42 18 85 24 95 5 10 17 47 26 83 9
36 25 89 36 119 11 30 27 86 35 124 12 58 30 94 102 208 105 167 146 239 139
245 -10 10 -43 -19 -56 -47 -16 -37 -50 -79 -63 -79 -34 0 85 253 171 363 104
135 259 379 353 557 40 74 59 97 113 135 15 11 36 28 47 38 10 9 23 17 28 17
6 0 10 7 10 15 0 8 6 15 13 15 15 0 107 96 107 112 0 6 12 22 26 35 19 17 29
21 39 13 15 -12 8 -55 -11 -71 -8 -6 -14 -22 -14 -35 0 -14 -10 -30 -25 -40
-14 -9 -25 -23 -25 -30 0 -8 -7 -14 -15 -14 -8 0 -15 -6 -15 -13 0 -8 -9 -22
-20 -32 -11 -10 -22 -26 -26 -37 -3 -10 -18 -32 -34 -48 -15 -16 -38 -47 -51
-69 -12 -23 -26 -41 -29 -41 -8 0 -33 -57 -51 -117 -6 -24 -16 -43 -21 -43 -4
0 -8 -8 -8 -19 0 -10 -6 -24 -14 -30 -7 -6 -16 -25 -19 -41 -4 -16 -15 -38
-26 -49 -11 -11 -17 -22 -13 -25 6 -6 -53 -93 -75 -111 -6 -5 -17 -22 -22 -38
-6 -15 -22 -32 -36 -37 -16 -6 -25 -17 -25 -30 0 -12 -5 -18 -10 -15 -6 3 -14
-5 -19 -18 -6 -14 -14 -28 -19 -31 -6 -3 -13 -18 -17 -33 -6 -27 -65 -153 -75
-163 -3 -3 -16 -27 -29 -55 -13 -27 -28 -57 -33 -65 -4 -8 -11 -22 -15 -30
-12 -28 -32 -80 -33 -85 -3 -16 -34 -81 -40 -85 -11 -7 -19 -110 -8 -110 4 0
8 7 8 15 0 8 8 15 18 15 11 0 27 9 36 19 10 11 28 22 42 25 13 4 24 10 24 15
0 12 59 71 71 71 5 0 9 7 9 15 0 8 6 15 14 15 8 0 17 8 21 19 3 10 14 26 25
36 11 10 20 26 20 35 0 10 7 21 15 24 9 3 22 21 30 40 19 44 40 59 33 23 -3
-14 -1 -32 3 -39 15 -24 33 9 30 53 -4 60 36 109 89 109 21 0 40 5 42 12 3 7
21 13 41 13 l37 1 0 -63 c0 -35 4 -63 10 -63 6 0 10 -13 10 -29 0 -17 -4 -33
-10 -36 -5 -3 -10 -17 -10 -31 0 -13 -6 -24 -13 -24 -7 0 -21 -22 -32 -50 -11
-27 -23 -50 -27 -50 -4 0 -8 -7 -8 -15 0 -8 -4 -15 -9 -15 -5 0 -16 -16 -26
-36 -9 -19 -23 -38 -30 -40 -8 -3 -17 -19 -20 -35 -4 -17 -18 -42 -31 -56 -13
-14 -24 -29 -24 -32 0 -3 -16 -22 -34 -42 -31 -32 -55 -96 -48 -123 2 -5 -2
-22 -7 -37 l-10 -29 54 0 c59 0 79 17 65 55 -9 27 9 55 37 55 16 0 23 -8 28
-30 12 -54 38 -49 51 11 3 15 17 32 30 38 13 6 24 15 24 21 0 5 7 10 15 10 8
0 15 4 15 9 0 4 18 20 40 35 22 14 40 32 40 39 0 6 17 30 37 52 21 22 43 49
49 60 46 83 58 103 79 122 12 12 29 36 36 52 8 17 20 31 26 31 7 0 13 8 13 18
0 18 57 132 71 142 3 3 10 21 14 40 4 19 12 38 17 41 10 6 45 117 55 171 3 15
11 33 19 39 18 15 18 53 -1 69 -26 22 -19 99 16 168 17 34 36 62 43 62 14 0
26 -50 26 -108 0 -18 6 -45 14 -60 8 -15 17 -50 21 -77 3 -28 10 -68 16 -90
11 -46 17 -175 8 -175 -12 0 -26 -76 -18 -98 5 -12 4 -24 -1 -27 -5 -3 -14
-24 -20 -46 -6 -22 -18 -43 -26 -46 -7 -3 -14 -14 -14 -25 0 -11 -11 -34 -25
-52 -14 -18 -25 -38 -25 -44 0 -6 -6 -15 -14 -19 -8 -5 -15 -37 -19 -91 l-6
-83 27 -10 c33 -13 56 -1 60 30 6 40 59 83 63 51 1 -5 2 -14 3 -20 2 -14 9
-15 30 -3 23 13 17 47 -9 51 -11 2 -24 7 -28 11 -12 12 13 101 28 101 7 0 19
10 28 23 21 31 40 10 44 -49 1 -25 10 -57 18 -71 9 -14 15 -34 12 -44 -3 -13
2 -24 14 -32 26 -16 26 -57 0 -57 -11 0 -21 -4 -23 -10 -1 -5 -52 -17 -113
-26 -60 -9 -128 -24 -150 -34 -22 -10 -75 -30 -118 -45 -42 -15 -81 -32 -85
-39 -9 -14 -87 -48 -174 -75 -36 -11 -86 -34 -110 -51 -32 -23 -65 -34 -132
-46 -85 -14 -117 -28 -161 -65 -11 -9 -51 -27 -90 -39 -74 -25 -134 -55 -255
-130 -73 -45 -96 -61 -145 -106 -13 -12 -27 -24 -32 -25 -28 -13 -113 -138
-113 -166 0 -12 58 74 64 95 4 12 10 22 14 22 4 0 25 17 48 38 74 68 116 96
213 145 53 27 100 52 106 58 5 5 18 9 30 9 12 0 25 4 30 9 9 8 148 47 195 55
9 1 20 5 26 8 16 10 59 3 84 -15 12 -8 29 -13 36 -10 8 3 14 0 14 -6 0 -6 8
-11 18 -11 10 0 27 -7 38 -15 12 -8 24 -11 28 -8 4 4 13 -3 22 -16 11 -15 22
-20 35 -16 16 5 19 1 19 -24 0 -33 -11 -39 -29 -17 -9 11 -48 14 -81 7 -3 -1
-5 -22 -5 -48 0 -36 5 -52 20 -64 17 -14 17 -19 6 -33 -11 -13 -11 -20 -3 -28
9 -9 12 -8 12 5 0 9 5 17 10 17 6 0 10 -12 10 -26 0 -25 -2 -26 -36 -20 -33 7
-35 6 -32 -16 2 -15 11 -24 26 -26 24 -4 29 -17 10 -25 -8 -3 -6 -6 5 -6 10
-1 20 5 23 13 15 38 64 27 64 -14 0 -24 -6 -30 -35 -40 -19 -6 -39 -9 -44 -6
-5 4 -13 1 -17 -5 -3 -6 -2 -14 4 -18 6 -4 13 -25 14 -47 2 -33 6 -40 21 -36
12 3 17 -2 17 -16 0 -25 -27 -36 -38 -16 -6 11 -16 13 -36 8 l-27 -6 21 -23
22 -23 -31 -23 -31 -23 42 -43 41 -42 -13 -41 c-12 -36 -12 -43 1 -51 10 -7
11 -11 2 -17 -8 -5 -9 -13 -3 -22 7 -10 10 -11 10 -2 0 7 15 12 40 12 37 0 40
-2 40 -26 0 -26 -1 -26 -50 -22 -33 3 -55 11 -64 23 -8 11 -20 16 -29 12 -10
-4 -17 0 -20 11 -3 12 -5 10 -6 -6 0 -12 7 -35 16 -49 13 -19 14 -28 5 -31
-17 -5 -15 -30 3 -49 21 -20 14 -38 -15 -38 -27 0 -39 -22 -16 -31 10 -4 16
-18 16 -41 0 -31 -1 -33 -16 -19 -8 9 -20 16 -25 16 -6 0 -17 7 -26 15 -20 21
-28 12 -14 -14 7 -11 9 -32 5 -47 -6 -22 0 -32 30 -60 43 -39 44 -64 3 -78
-22 -8 -30 -7 -37 4 -6 10 -7 2 -3 -23 4 -30 2 -41 -12 -51 -15 -11 -17 -22
-12 -70 4 -45 3 -56 -9 -56 -8 0 -14 4 -14 8 0 5 -9 19 -20 32 l-20 23 0 -22
c0 -15 -8 -25 -21 -28 -16 -4 -19 -11 -14 -27 4 -11 7 -31 7 -43 0 -13 4 -23
9 -23 5 0 9 -16 9 -35 0 -40 -33 -85 -63 -85 -10 0 -29 -8 -42 -18 l-23 -19
31 -18 32 -19 -37 -15 c-33 -14 -37 -20 -43 -63 -8 -57 -26 -75 -58 -61 -22
10 -23 9 -19 -26 3 -20 9 -39 15 -42 5 -4 7 -15 3 -25 -6 -16 -8 -16 -22 4
-16 24 -38 28 -57 12 -7 -6 -21 -17 -32 -24 -16 -12 -17 -16 -6 -30 12 -14 15
-13 34 10 l21 27 18 -24 c15 -17 21 -20 27 -10 6 10 10 9 14 -3 7 -17 -1 -20
-41 -16 -18 1 -23 -3 -20 -17 2 -11 12 -18 26 -17 15 0 22 -5 22 -18 0 -11 -5
-16 -10 -13 -6 4 -17 1 -26 -5 -12 -10 -18 -8 -35 11 l-21 24 7 -27 c7 -27 7
-27 -30 -17 -21 6 -47 8 -58 5 -11 -2 -30 2 -42 10 -24 16 -59 9 -52 -11 7
-16 -30 -37 -53 -30 -29 9 -25 -57 6 -84 24 -21 23 -57 -2 -47 -8 3 -11 0 -8
-9 4 -8 -3 -15 -18 -17 -19 -2 -23 -9 -24 -38 0 -25 -5 -36 -17 -38 -14 -3
-17 4 -17 37 0 40 -1 41 -36 41 -22 0 -43 7 -53 18 -9 10 -28 25 -43 35 -24
15 -28 15 -28 2 0 -25 -25 -17 -51 18 -48 64 -79 112 -79 123 0 6 -7 17 -15
24 -25 21 -21 3 20 -95 7 -16 20 -54 29 -83 8 -29 24 -66 36 -81 11 -16 20
-34 20 -41 0 -11 39 -86 71 -138 7 -12 22 -22 31 -22 10 0 18 -7 18 -15 0 -8
-4 -15 -10 -15 -5 0 -2 -9 7 -19 16 -19 36 -20 635 -21 340 0 618 1 618 4 0 2
7 40 15 83 8 43 29 186 45 318 17 132 41 301 54 375 14 74 27 160 31 190 3 30
15 102 25 160 10 58 31 195 46 305 27 197 38 235 71 235 7 0 13 5 13 10 0 6 6
10 14 10 8 0 16 4 18 8 3 8 104 72 113 72 2 0 38 20 78 45 41 25 78 45 81 45
20 0 170 82 209 114 24 20 47 36 50 36 18 0 141 120 280 271 l69 74 -6 103
c-4 62 -14 122 -25 150 -10 26 -21 68 -25 94 -12 82 -126 409 -199 568 -13 30
-30 80 -37 110 -7 30 -16 64 -20 75 -5 11 -16 54 -26 95 -9 41 -39 143 -67
225 -27 83 -58 182 -68 222 -11 40 -37 125 -60 190 -22 65 -54 159 -70 209
-28 87 -32 94 -91 145 -65 55 -125 111 -233 216 -59 57 -119 97 -260 173 -57
30 -52 20 11 -25 40 -28 67 -56 60 -62 -2 -3 -24 8 -48 25 -105 72 -179 108
-273 132 -16 4 -38 11 -47 15 -11 4 -18 3 -18 -4z m404 -197 c3 -8 2 -12 -4
-9 -6 3 -10 10 -10 16 0 14 7 11 14 -7z m153 -336 c-3 -7 -5 -2 -5 12 0 14 2
19 5 13 2 -7 2 -19 0 -25z m30 -75 c8 -21 17 -64 20 -97 3 -33 11 -69 19 -80
8 -11 14 -28 14 -38 0 -10 5 -18 10 -18 6 0 10 -12 10 -27 0 -16 4 -34 9 -42
5 -8 5 -28 -1 -48 -7 -27 -6 -40 6 -58 9 -14 16 -33 16 -45 0 -11 5 -20 11
-20 8 0 10 -17 7 -51 -3 -28 -2 -45 3 -37 5 7 8 -22 7 -67 -1 -52 4 -97 15
-128 24 -69 22 -167 -4 -167 -5 0 -9 15 -9 33 0 49 -59 449 -70 472 -5 11 -12
49 -15 85 -4 36 -15 97 -25 135 -10 39 -23 97 -29 130 -6 33 -14 70 -17 83
-10 35 6 25 23 -15z m184 -1046 c5 -32 9 -79 7 -105 -3 -41 -5 -34 -21 58 -20
123 -20 127 -7 114 5 -5 15 -36 21 -67z m44 -257 c3 -5 1 -10 -4 -10 -6 0 -11
5 -11 10 0 6 2 10 4 10 3 0 8 -4 11 -10z m-765 -632 c0 -15 -9 -27 -25 -35
-29 -13 -32 -3 -9 32 20 31 34 32 34 3z m80 -63 c0 -12 -19 -12 -23 0 -4 9 -1
12 9 8 7 -3 14 -7 14 -8z m-65 -34 c3 -5 1 -12 -5 -16 -5 -3 -10 1 -10 9 0 18
6 21 15 7z m135 -51 c0 -5 -6 -10 -14 -10 -8 0 -18 5 -21 10 -3 6 3 10 14 10
12 0 21 -4 21 -10z m-45 -140 l20 -9 -20 -1 c-11 -1 -31 -3 -45 -3 -22 -2 -25
-7 -25 -38 0 -32 -2 -36 -20 -29 -24 9 -61 57 -51 67 4 4 15 2 25 -4 13 -8 23
-7 42 8 26 20 43 22 74 9z m-65 -170 c4 0 3 -11 -3 -25 -10 -20 -19 -25 -49
-25 -27 0 -38 4 -38 15 0 11 11 15 40 15 45 0 44 -1 30 35 -6 15 -7 32 -3 38
5 7 9 -1 11 -20 2 -18 7 -33 12 -33z m-37 -237 c-7 -2 -21 -2 -30 0 -10 3 -4
5 12 5 17 0 24 -2 18 -5z m47 -93 c0 -5 -4 -10 -10 -10 -5 0 -10 5 -10 10 0 6
5 10 10 10 6 0 10 -4 10 -10z m-100 -30 c0 -5 -9 -10 -20 -10 -11 0 -20 5 -20
10 0 6 9 10 20 10 11 0 20 -4 20 -10z m15 -110 c3 -5 -1 -10 -10 -10 -9 0 -13
5 -10 10 3 6 8 10 10 10 2 0 7 -4 10 -10z m-65 -19 c0 -6 -4 -13 -10 -16 -5
-3 -10 1 -10 9 0 9 5 16 10 16 6 0 10 -4 10 -9z m36 -68 c-10 -10 -19 5 -10
18 6 11 8 11 12 0 2 -7 1 -15 -2 -18z m-90 2 l29 -16 -34 3 c-19 2 -36 9 -39
16 -5 16 10 15 44 -3z m-220 -562 c-10 -10 -19 5 -10 18 6 11 8 11 12 0 2 -7
1 -15 -2 -18z m4 -128 c0 -8 -7 -15 -15 -15 -16 0 -20 12 -8 23 11 12 23 8 23
-8z m-80 -125 c0 -5 -2 -10 -4 -10 -3 0 -8 5 -11 10 -3 6 -1 10 4 10 6 0 11
-4 11 -10z m-20 -34 c0 -3 -4 -8 -10 -11 -5 -3 -10 -1 -10 4 0 6 5 11 10 11 6
0 10 -2 10 -4z m-200 -120 c0 -3 -4 -8 -10 -11 -5 -3 -10 -1 -10 4 0 6 5 11
10 11 6 0 10 -2 10 -4z m-42 -35 c3 -8 -1 -12 -9 -9 -7 2 -15 10 -17 17 -3 8
1 12 9 9 7 -2 15 -10 17 -17z m98 -18 c-10 -10 -19 5 -10 18 6 11 8 11 12 0 2
-7 1 -15 -2 -18z m144 17 c0 -5 -4 -10 -10 -10 -5 0 -10 5 -10 10 0 6 5 10 10
10 6 0 10 -4 10 -10z m-540 -161 c0 -25 -33 -22 -38 4 -2 12 3 17 17 17 15 0
21 -6 21 -21z m247 -31 c-3 -8 -6 -5 -6 6 -1 11 2 17 5 13 3 -3 4 -12 1 -19z"/>
<path d="M17200 4956 c0 -8 -9 -18 -20 -21 -25 -8 -26 -25 -1 -25 20 0 71 36
71 51 0 5 -11 9 -25 9 -15 0 -25 -6 -25 -14z"/>
<path d="M10536 4935 c-5 -14 11 -165 19 -173 1 -2 6 18 9 43 12 74 -10 175
-28 130z"/>
<path d="M15797 4933 c-4 -3 -7 -11 -7 -17 0 -6 5 -5 12 2 6 6 9 14 7 17 -3 3
-9 2 -12 -2z"/>
<path d="M12830 4905 c-10 -12 -10 -15 4 -15 9 0 16 7 16 15 0 8 -2 15 -4 15
-2 0 -9 -7 -16 -15z"/>
<path d="M6112 4865 c0 -16 2 -22 5 -12 2 9 2 23 0 30 -3 6 -5 -1 -5 -18z"/>
<path d="M12775 4850 c-3 -6 1 -7 9 -4 18 7 21 14 7 14 -6 0 -13 -4 -16 -10z"/>
<path d="M16666 4829 c-102 -76 -271 -289 -230 -289 13 0 278 280 287 304 9
24 -13 19 -57 -15z"/>
<path d="M6110 4716 c0 -71 -4 -98 -15 -110 -9 -8 -15 -33 -15 -57 0 -50 -38
-135 -62 -142 -10 -3 -18 -14 -18 -25 0 -13 -9 -22 -25 -26 -14 -4 -25 -11
-25 -16 0 -6 -7 -10 -15 -10 -8 0 -15 -9 -15 -20 0 -11 -7 -20 -15 -20 -9 0
-18 -8 -22 -17 -3 -10 -17 -33 -30 -51 -14 -18 -27 -48 -30 -65 -2 -18 -10
-50 -17 -72 -12 -38 -12 -195 0 -252 9 -43 44 -22 44 26 0 9 16 48 35 87 21
41 35 84 35 105 0 23 6 39 14 42 8 3 18 22 22 41 3 20 10 36 15 36 5 0 9 15 9
34 0 27 10 43 50 83 28 28 50 47 50 44 0 -3 7 2 14 12 8 10 18 18 23 17 26 -3
50 359 24 368 -6 2 -11 21 -11 43 0 21 -4 39 -10 39 -6 0 -10 -38 -10 -94z"/>
<path d="M15756 4739 c-30 -59 -32 -69 -11 -69 8 0 15 6 15 14 0 8 6 21 13 28
6 7 14 20 16 28 2 8 6 23 8 33 11 37 -17 14 -41 -34z"/>
<path d="M12631 4696 c-25 -39 -27 -98 -6 -116 13 -10 15 -9 15 12 0 14 3 28
7 32 5 4 13 30 19 57 14 60 -3 67 -35 15z"/>
<path d="M12200 4645 c0 -8 4 -15 9 -15 5 0 13 -9 16 -20 9 -27 25 -16 17 13
-8 34 -42 52 -42 22z"/>
<path d="M13691 4639 c6 -13 7 -24 2 -28 -35 -24 -82 -211 -54 -211 32 0 60
23 75 59 27 69 16 181 -20 195 -12 5 -12 2 -3 -15z"/>
<path d="M5266 4607 c-3 -13 -1 -93 4 -178 5 -85 10 -211 10 -281 0 -70 4
-147 10 -170 5 -24 12 -55 15 -70 3 -17 16 -32 37 -42 17 -9 32 -16 33 -16 11
0 33 85 34 133 1 22 6 27 25 27 24 0 66 -44 66 -69 0 -6 5 -11 10 -11 6 0 10
-6 10 -13 0 -7 8 -20 18 -28 9 -9 26 -28 36 -43 33 -46 58 -32 74 44 18 90 11
129 -37 196 -23 31 -41 63 -41 71 0 7 -4 13 -10 13 -5 0 -10 6 -10 13 -1 6
-16 37 -35 67 -19 30 -48 82 -65 115 -18 33 -36 65 -40 70 -5 6 -27 46 -50 90
-24 44 -47 86 -52 93 -16 19 -35 14 -42 -11z"/>
<path d="M12270 4600 c0 -5 7 -10 16 -10 8 0 12 5 9 10 -3 6 -10 10 -16 10 -5
0 -9 -4 -9 -10z"/>
<path d="M16337 4580 c-9 -11 -17 -23 -17 -26 0 -3 -10 -19 -22 -34 -22 -27
-33 -43 -90 -139 -14 -25 -31 -47 -37 -49 -6 -2 -11 -8 -11 -14 0 -14 -138
-246 -162 -274 -10 -11 -18 -24 -18 -30 0 -8 -24 -47 -60 -99 -8 -12 -25 -37
-37 -56 -13 -19 -27 -41 -33 -49 -22 -31 -106 -177 -130 -225 -14 -28 -28 -51
-32 -53 -5 -2 -8 -12 -8 -22 0 -10 -5 -22 -11 -25 -5 -4 -22 -31 -36 -61 -14
-30 -29 -51 -34 -48 -5 3 -9 -4 -9 -15 0 -12 -4 -21 -10 -21 -5 0 -12 -11 -16
-25 -4 -16 -13 -25 -25 -25 -12 0 -19 -7 -19 -20 0 -10 -9 -24 -20 -30 -25
-13 -26 -30 -2 -30 16 0 102 79 102 94 0 8 61 66 71 66 5 0 9 4 9 10 0 5 18
33 40 62 22 29 40 60 40 68 0 8 16 38 35 65 19 28 38 58 41 68 4 9 10 17 15
17 5 0 9 6 9 14 0 8 3 16 8 18 4 2 34 43 66 92 33 49 68 96 78 105 10 8 18 21
18 28 0 7 4 13 9 13 5 0 14 13 21 30 7 16 23 41 36 55 13 14 27 37 30 50 3 14
12 25 20 25 8 0 14 8 14 18 0 9 9 28 20 42 11 14 20 28 20 32 0 4 15 28 34 53
19 24 38 55 42 67 4 13 9 25 13 28 11 9 31 49 31 62 0 6 12 29 26 49 31 45 35
65 18 98 -10 20 -11 27 -1 33 8 5 9 10 2 17 -8 8 -16 4 -28 -9z"/>
<path d="M6000 4239 c0 -5 5 -7 10 -4 6 3 10 8 10 11 0 2 -4 4 -10 4 -5 0 -10
-5 -10 -11z"/>
<path d="M13602 4210 c0 -14 2 -19 5 -12 2 6 2 18 0 25 -3 6 -5 1 -5 -13z"/>
<path d="M10609 4209 c-13 -36 -9 -168 10 -319 29 -242 41 -478 41 -805 0
-262 -3 -310 -25 -381 -6 -21 11 -70 79 -219 18 -38 38 -85 46 -103 11 -27 15
-31 22 -18 5 9 7 197 6 418 l-3 403 31 115 c18 63 35 123 39 133 5 12 2 17 -9
17 -12 0 -16 10 -16 40 0 29 -4 40 -15 40 -10 0 -15 10 -15 29 0 16 -6 36 -13
43 -7 7 -19 28 -26 46 -8 18 -20 36 -28 41 -11 6 -14 26 -12 82 1 41 2 97 3
124 1 28 6 54 14 58 19 13 14 27 -13 37 -14 5 -25 16 -25 24 0 7 -3 28 -6 45
-5 24 -3 31 10 31 31 0 18 39 -19 54 -21 9 -35 22 -35 33 0 14 -2 15 -9 4 -6
-10 -11 -6 -18 15 -6 18 -11 23 -14 13z m111 -339 c0 -11 -4 -20 -9 -20 -5 0
-7 9 -4 20 3 11 7 20 9 20 2 0 4 -9 4 -20z"/>
<path d="M13591 4154 c0 -11 3 -14 6 -6 3 7 2 16 -1 19 -3 4 -6 -2 -5 -13z"/>
<path d="M6127 4068 c-3 -13 -9 -54 -12 -93 -4 -38 -13 -80 -21 -92 -8 -12
-14 -37 -14 -56 0 -24 -14 -53 -52 -106 -29 -40 -57 -80 -63 -89 -5 -9 -19
-26 -30 -37 -39 -43 -60 -71 -79 -108 -11 -20 -22 -37 -26 -37 -4 0 -12 -18
-19 -40 -6 -22 -16 -40 -21 -40 -6 0 -10 -7 -10 -15 0 -8 -9 -19 -20 -25 -11
-6 -20 -15 -20 -21 0 -5 -5 -15 -10 -22 -6 -7 -21 -28 -33 -47 -13 -19 -39
-57 -58 -85 -19 -27 -48 -80 -64 -117 -20 -46 -36 -68 -47 -68 -14 0 -18 -9
-17 -42 0 -29 3 -37 8 -24 7 17 8 17 23 2 20 -19 58 -21 58 -3 0 8 18 22 40
32 22 10 40 22 40 27 0 4 19 8 43 8 23 1 53 7 67 15 14 8 50 14 81 15 62 0
120 16 132 37 4 7 14 13 22 13 8 0 18 7 23 15 4 9 18 17 30 20 12 2 26 6 31 9
19 12 34 -26 32 -77 -3 -67 -26 -137 -55 -168 -52 -54 -116 -105 -148 -115
-10 -4 -18 -9 -18 -13 0 -4 -17 -15 -37 -26 -21 -11 -40 -22 -43 -25 -15 -15
-88 -60 -98 -60 -6 0 -17 -9 -24 -20 -7 -11 -18 -20 -24 -20 -14 0 -64 -53
-64 -68 0 -7 -4 -12 -10 -12 -17 0 -29 -70 -23 -138 3 -42 -1 -98 -11 -151
-18 -94 -21 -191 -6 -191 6 0 10 -45 10 -116 l0 -117 -32 -32 c-18 -17 -41
-47 -51 -66 -10 -19 -29 -52 -42 -74 -13 -22 -24 -55 -24 -72 l-1 -33 120 0
120 0 0 -30 c0 -22 -5 -30 -17 -30 -43 -1 -113 -96 -113 -155 0 -26 -31 -65
-52 -65 -15 0 -88 45 -98 60 -18 25 -61 34 -165 31 -63 -1 -123 3 -140 9 -58
22 -58 23 -67 -422 -10 -459 -8 -560 9 -565 6 -2 28 24 48 59 21 35 43 67 51
71 8 4 14 13 14 20 0 11 20 35 119 144 16 17 36 44 44 60 58 113 85 172 91
196 7 29 37 46 131 77 66 21 99 38 125 62 14 13 49 41 78 63 55 42 102 102
102 133 0 21 79 112 97 112 6 0 25 13 41 30 17 16 35 30 40 30 6 0 24 14 42
30 18 17 38 30 45 30 7 0 16 7 19 15 3 9 21 22 40 30 52 22 62 65 47 208 -15
152 -13 301 5 422 24 157 29 486 10 626 -9 64 -23 141 -31 173 -19 72 -19 121
1 232 13 77 14 125 4 359 -6 149 -12 311 -14 360 -5 150 -41 268 -59 193z"/>
<path d="M9778 4048 c-2 -15 -11 -24 -25 -26 -32 -5 -31 -10 22 -127 12 -27
30 -68 40 -90 9 -22 32 -71 50 -110 59 -125 105 -225 105 -230 0 -2 32 -70 70
-150 39 -80 70 -154 70 -165 0 -10 3 -20 8 -22 4 -1 14 -19 23 -38 57 -120
102 -218 109 -235 5 -11 34 -73 64 -137 31 -65 56 -119 56 -122 0 -2 25 -56
55 -120 30 -63 55 -122 55 -130 0 -9 4 -16 8 -16 5 0 15 -18 22 -40 7 -22 17
-40 22 -40 4 0 8 -5 8 -11 0 -17 63 -141 81 -159 8 -9 21 -14 28 -12 15 5 51
-26 51 -45 0 -7 4 -13 9 -13 5 0 11 -9 14 -20 4 -15 14 -20 42 -20 20 0 46 6
58 12 12 7 31 13 41 13 30 0 29 19 -5 61 -17 21 -38 56 -46 77 -8 20 -18 37
-22 37 -4 0 -13 17 -20 37 -8 21 -17 40 -20 43 -12 10 -31 50 -31 65 0 8 -3
15 -8 15 -4 0 -15 17 -24 38 -20 42 -50 95 -59 102 -10 8 -69 150 -69 166 0 8
-7 14 -15 14 -8 0 -15 8 -15 18 0 9 -11 39 -25 66 -14 27 -25 55 -25 63 0 7
-5 13 -11 13 -5 0 -21 24 -34 53 -13 30 -35 61 -49 70 -17 11 -26 27 -26 42 0
17 -7 28 -22 34 -15 5 -32 30 -48 65 -13 31 -30 56 -37 56 -7 0 -13 7 -13 15
0 15 -78 175 -90 185 -16 12 -200 397 -200 417 0 12 6 23 13 25 10 2 11 11 1
43 -8 27 -13 33 -13 18 -1 -26 -4 -27 -32 -13 -11 6 -19 21 -19 35 0 28 -27
58 -46 51 -8 -3 -14 1 -14 9 0 18 -16 20 -24 3 -3 -7 -5 12 -4 42 0 49 -14
110 -26 110 -3 0 -6 -10 -8 -22z m59 -190 c-3 -8 -6 -5 -6 6 -1 11 2 17 5 13
3 -3 4 -12 1 -19z"/>
<path d="M14595 4038 c-4 -18 -9 -42 -11 -53 -13 -79 -31 -134 -51 -155 -19
-21 -32 -60 -19 -60 5 0 86 117 86 125 0 4 8 15 18 24 9 9 18 32 20 51 1 19 8
37 14 41 6 4 8 18 4 33 -5 19 -13 26 -30 26 -18 0 -25 -7 -31 -32z"/>
<path d="M15187 3833 c-140 -139 -181 -197 -60 -83 154 144 223 220 200 220
-2 0 -65 -61 -140 -137z"/>
<path d="M13671 3668 c17 -34 19 -34 19 -5 0 18 -5 27 -15 27 -13 0 -14 -4 -4
-22z"/>
<path d="M14996 3643 c-21 -24 -34 -43 -29 -43 13 0 76 67 72 77 -2 4 -21 -11
-43 -34z"/>
<path d="M12391 3628 c-25 -66 -33 -140 -28 -258 6 -135 10 -166 20 -176 11
-11 18 50 41 351 7 88 -13 136 -33 83z"/>
<path d="M13221 3564 c0 -11 3 -14 6 -6 3 7 2 16 -1 19 -3 4 -6 -2 -5 -13z"/>
<path d="M13250 3565 c-7 -8 -8 -15 -2 -15 5 0 15 7 22 15 7 8 8 15 2 15 -5 0
-15 -7 -22 -15z"/>
<path d="M13720 3523 c0 -21 5 -56 10 -78 6 -22 13 -60 15 -85 3 -25 9 -70 15
-100 l9 -55 -3 60 c-3 38 -1 53 4 40 5 -11 9 -37 9 -57 1 -21 6 -38 12 -38 14
0 5 121 -13 185 -7 22 -11 61 -9 86 2 32 -2 51 -14 62 -25 26 -35 20 -35 -20z"/>
<path d="M14886 3524 c-9 -8 -16 -21 -16 -27 0 -7 5 -4 11 5 5 10 17 22 27 27
9 6 12 11 5 11 -6 0 -19 -7 -27 -16z"/>
<path d="M13343 3408 c-20 -26 -23 -37 -12 -44 8 -5 9 -3 4 6 -6 10 -4 12 8 7
13 -5 17 -1 17 18 0 28 -3 30 -17 13z"/>
<path d="M5285 3399 c-11 -16 -7 -294 5 -399 18 -154 20 -163 34 -151 22 18
84 -8 104 -44 6 -11 12 -14 12 -7 0 6 6 12 13 12 22 0 36 60 27 115 -7 48 -63
203 -100 275 -10 19 -21 51 -24 70 -24 119 -49 165 -71 129z"/>
<path d="M14796 3395 c-9 -26 -7 -32 5 -12 6 10 9 21 6 23 -2 3 -7 -2 -11 -11z"/>
<path d="M14766 3353 c-6 -14 -5 -15 5 -6 7 7 10 15 7 18 -3 3 -9 -2 -12 -12z"/>
<path d="M14715 3289 c-4 -6 -5 -12 -2 -15 2 -3 7 2 10 11 7 17 1 20 -8 4z"/>
<path d="M14687 3253 c-4 -3 -7 -11 -7 -17 0 -6 5 -5 12 2 6 6 9 14 7 17 -3 3
-9 2 -12 -2z"/>
<path d="M14655 3210 c-3 -5 -1 -10 4 -10 6 0 11 5 11 10 0 6 -2 10 -4 10 -3
0 -8 -4 -11 -10z"/>
<path d="M15428 3153 c-3 -13 -2 -23 3 -23 5 0 9 -8 9 -17 0 -14 3 -14 12 -5
9 9 10 15 2 20 -7 4 -14 16 -16 27 -4 19 -4 19 -10 -2z"/>
<path d="M12514 3100 c-10 -27 -22 -50 -26 -50 -4 0 -8 -6 -8 -12 0 -7 -14
-42 -30 -76 -17 -35 -30 -73 -30 -85 0 -24 9 -18 14 9 4 17 14 41 77 181 10
24 19 47 19 53 0 5 5 10 10 10 6 0 10 5 10 10 0 27 -20 5 -36 -40z"/>
<path d="M14585 3130 c-3 -5 -2 -10 4 -10 5 0 13 5 16 10 3 6 2 10 -4 10 -5 0
-13 -4 -16 -10z"/>
<path d="M17623 3065 c-3 -9 -3 -18 0 -21 9 -9 27 6 27 22 0 19 -19 18 -27 -1z"/>
<path d="M11800 2913 c0 -10 -4 -23 -9 -28 -15 -16 -18 -88 -3 -93 6 -2 12 5
12 15 0 10 7 27 15 37 19 25 19 60 0 76 -12 10 -15 9 -15 -7z"/>
<path d="M14337 2827 c-34 -40 -67 -90 -94 -142 -11 -22 -30 -57 -42 -77 -11
-21 -30 -55 -42 -75 -12 -21 -30 -47 -40 -59 -10 -11 -19 -25 -19 -31 0 -6 -4
-13 -8 -15 -8 -3 -72 -104 -72 -113 0 -3 14 10 30 28 17 19 30 38 30 42 0 4
14 24 30 44 46 54 50 60 50 66 0 3 21 36 46 74 27 42 43 75 38 82 -4 7 -3 10
3 6 5 -3 18 11 28 31 11 20 37 65 58 100 44 71 46 86 4 39z"/>
<path d="M12430 2826 c-15 -39 -12 -46 6 -13 9 16 13 31 10 34 -3 3 -10 -6
-16 -21z"/>
<path d="M12401 2833 c-1 -6 -4 -20 -7 -30 -5 -17 -5 -17 6 0 6 10 9 23 6 30
-3 9 -5 9 -5 0z"/>
<path d="M13042 2788 c-17 -9 -22 -17 -18 -34 6 -22 -15 -54 -34 -54 -5 0 -15
-6 -22 -12 -8 -7 -23 -18 -33 -24 -28 -16 -30 -49 -4 -73 30 -27 40 -27 127 9
102 42 128 73 110 137 -15 55 -70 78 -126 51z"/>
<path d="M12125 2770 c-7 -11 12 -50 24 -50 4 0 14 -11 21 -25 11 -20 11 -27
0 -40 -12 -14 -17 -12 -46 16 -36 35 -53 34 -34 0 15 -29 91 -106 113 -114 16
-6 18 -2 11 38 -8 57 12 68 68 38 41 -23 42 -22 24 22 -22 57 -51 93 -84 109
-37 18 -88 21 -97 6z"/>
<path d="M12374 2766 c-5 -14 -9 -15 -15 -4 -5 8 -9 -10 -9 -46 0 -46 5 -68
23 -93 12 -18 28 -33 35 -33 6 0 12 -4 12 -10 0 -5 5 -10 10 -10 6 0 9 18 8
40 -2 22 -6 40 -10 40 -5 0 -9 28 -9 63 -1 34 -4 52 -6 40 -2 -13 -8 -23 -13
-23 -4 0 -6 -8 -3 -19 3 -10 0 -22 -6 -26 -18 -10 -24 23 -11 56 7 16 10 32 7
36 -4 3 -10 -2 -13 -11z"/>
<path d="M13822 2759 c-6 -15 -16 -29 -23 -31 -8 -3 -14 -40 -17 -119 -3 -68
-9 -117 -16 -121 -6 -4 -7 -8 -1 -8 25 0 32 22 44 120 7 57 17 113 22 123 6
10 9 28 6 40 -3 21 -4 21 -15 -4z"/>
<path d="M12962 2730 c0 -14 2 -19 5 -12 2 6 2 18 0 25 -3 6 -5 1 -5 -13z"/>
<path d="M12863 2710 c-8 -11 -9 -21 -3 -25 8 -5 30 24 30 39 0 13 -16 5 -27
-14z"/>
<path d="M12860 2583 c-8 -4 -20 -11 -27 -17 -32 -28 -43 -36 -50 -36 -5 0
-51 -14 -103 -31 -76 -24 -108 -30 -157 -27 -50 3 -60 1 -51 -9 6 -7 21 -13
34 -13 12 0 25 -4 28 -9 22 -35 -192 -24 -215 12 -4 5 -12 8 -18 6 -7 -3 0
-17 18 -34 17 -17 31 -34 31 -38 0 -5 14 -22 31 -38 32 -30 32 -36 -1 -19 -15
8 -21 6 -29 -7 -5 -10 -12 -15 -16 -11 -3 3 -1 15 6 27 15 23 3 43 -12 21 -7
-11 -8 -7 -3 14 5 22 4 28 -7 24 -8 -3 -28 11 -46 31 -23 25 -33 31 -33 19 0
-9 5 -18 11 -20 9 -3 9 -10 0 -27 -7 -12 -10 -27 -8 -34 3 -7 8 0 12 16 4 15
12 27 17 27 6 0 8 -6 5 -12 -15 -41 -17 -58 -8 -58 5 0 13 9 16 20 3 11 11 20
16 20 11 0 2 -39 -12 -55 -5 -5 -9 -16 -9 -25 1 -8 7 -3 16 13 9 16 17 27 19
25 7 -7 -17 -88 -26 -88 -5 0 -9 -7 -9 -15 0 -29 17 -15 30 25 7 22 15 38 18
35 2 -2 -3 -26 -11 -53 -17 -52 -13 -136 5 -110 7 9 8 4 3 -15 -5 -23 0 -34
25 -57 34 -32 37 -38 14 -36 -12 1 -21 -14 -31 -49 -8 -27 -19 -54 -24 -59 -5
-6 -9 -24 -9 -40 0 -25 2 -28 11 -16 9 13 10 13 6 0 -2 -8 -10 -15 -18 -15 -8
0 -17 -4 -21 -10 -4 -6 -8 -1 -8 10 l-1 20 -15 -20 c-14 -19 -15 -17 -10 25 5
42 5 43 -4 13 -13 -41 -24 -43 -15 -3 7 30 -7 42 -19 18 -4 -7 -4 3 -1 22 5
34 5 35 -10 12 -14 -19 -18 -20 -31 -8 -8 8 -14 21 -14 28 -1 8 -6 6 -15 -6
-14 -19 -15 -19 -15 -2 0 15 -3 16 -15 6 -12 -10 -15 -9 -15 5 0 10 -3 16 -6
13 -3 -4 -22 5 -41 18 -43 29 -70 30 -101 4 -19 -16 -22 -26 -17 -49 4 -17 1
-38 -7 -50 -7 -11 -10 -21 -8 -23 3 -2 19 -13 37 -26 18 -12 37 -22 42 -22 18
0 82 -48 109 -83 15 -18 35 -41 45 -51 9 -10 17 -28 17 -42 0 -15 6 -24 16
-24 8 0 13 -4 10 -9 -8 -13 21 -78 40 -89 28 -16 12 -44 -33 -57 -35 -10 -43
-10 -47 1 -7 18 -46 18 -46 1 0 -7 14 -28 31 -46 16 -18 28 -39 25 -47 -3 -7
4 -24 15 -37 24 -32 24 -49 -1 -72 l-21 -19 23 -13 c36 -19 58 -15 68 12 14
36 39 31 92 -17 25 -24 60 -54 78 -68 17 -14 46 -37 63 -52 17 -14 44 -29 59
-32 27 -5 28 -7 28 -71 0 -39 4 -65 11 -65 5 0 7 5 4 10 -7 11 11 40 24 40 4
0 16 -8 27 -18 10 -9 41 -28 67 -42 26 -14 56 -32 65 -40 9 -8 39 -26 67 -40
27 -14 55 -31 61 -39 13 -16 178 -44 182 -31 6 17 29 11 45 -13 l16 -22 -6 24
c-5 21 -4 22 15 12 16 -9 29 -8 54 3 18 8 26 15 18 15 -13 1 -13 2 0 11 12 7
11 10 -5 16 -35 12 -178 165 -220 235 -5 9 -42 59 -81 110 -39 52 -76 104 -83
117 -14 27 -30 46 -88 106 -24 24 -43 47 -43 50 0 4 -15 20 -34 36 -18 17 -43
54 -55 82 -12 29 -26 62 -31 73 -5 11 -14 61 -20 110 -7 50 -25 160 -41 245
-17 85 -37 206 -45 269 -8 63 -16 119 -17 125 -1 6 6 11 16 10 84 -4 85 -5 94
-89 2 -22 8 -53 13 -69 6 -16 10 -46 10 -68 0 -63 75 -276 117 -334 12 -17 14
-17 30 -1 18 18 17 28 -22 207 -19 87 -17 288 3 313 7 8 12 34 11 58 -3 59 13
85 67 110 24 12 47 25 50 30 3 5 13 9 23 9 10 0 24 7 31 15 10 12 10 15 -1 14
-8 0 -21 -3 -29 -6z m-484 -295 c4 -6 2 -14 -4 -16 -7 -2 -12 -8 -12 -14 0 -6
8 -7 18 -3 14 5 15 4 5 -6 -7 -7 -13 -21 -13 -31 0 -10 -5 -18 -10 -18 -6 0
-8 11 -4 28 7 24 6 26 -9 13 -10 -8 -17 -9 -17 -3 0 6 5 14 10 17 6 3 10 15
10 26 0 21 15 25 26 7z m-56 -105 c-11 -17 -11 -17 -6 0 3 10 6 24 7 30 0 9 2
9 5 0 3 -7 0 -20 -6 -30z m23 -18 c-3 -9 -8 -14 -10 -11 -3 3 -2 9 2 15 9 16
15 13 8 -4z m37 -75 c-8 -5 -19 -10 -25 -10 -5 0 -3 5 5 10 8 5 20 10 25 10 6
0 3 -5 -5 -10z m-21 -121 c-7 -19 -16 -38 -21 -44 -9 -10 -6 4 14 58 15 39 20
27 7 -14z m17 -30 c-29 -77 -35 -67 -6 11 11 30 20 57 20 59 0 2 2 2 5 -1 3
-3 -5 -34 -19 -69z m25 -16 c-8 -15 -10 -15 -11 -2 0 17 10 32 18 25 2 -3 -1
-13 -7 -23z m-74 -35 c-3 -8 -6 -5 -6 6 -1 11 2 17 5 13 3 -3 4 -12 1 -19z"/>
<path d="M12225 2409 c-4 -6 -5 -12 -2 -15 2 -3 7 2 10 11 7 17 1 20 -8 4z"/>
<path d="M12226 2335 c-3 -9 -6 -22 -5 -28 0 -7 5 -1 10 12 5 13 8 26 5 28 -2
2 -6 -3 -10 -12z"/>
<path d="M17150 2328 c0 -4 6 -8 14 -8 8 0 17 4 20 8 2 4 -4 8 -15 8 -10 0
-19 -4 -19 -8z"/>
<path d="M12246 2314 c-4 -9 -4 -19 -1 -22 2 -3 7 3 11 12 4 9 4 19 1 22 -2 3
-7 -3 -11 -12z"/>
<path d="M13982 2273 c-32 -47 -34 -53 -19 -53 7 0 23 18 36 40 25 45 13 55
-17 13z"/>
<path d="M12196 2255 c-9 -26 -7 -32 5 -12 6 10 9 21 6 23 -2 3 -7 -2 -11 -11z"/>
<path d="M17170 2216 c0 -8 -3 -22 -6 -30 -5 -14 0 -15 32 -10 45 7 48 9 39
24 -4 7 -16 10 -26 7 -12 -3 -19 0 -19 9 0 8 -4 14 -10 14 -5 0 -10 -6 -10
-14z"/>
<path d="M14618 2213 c7 -3 16 -2 19 1 4 3 -2 6 -13 5 -11 0 -14 -3 -6 -6z"/>
<path d="M16322 2170 c0 -14 2 -19 5 -12 2 6 2 18 0 25 -3 6 -5 1 -5 -13z"/>
<path d="M17125 2180 c-3 -5 -1 -10 4 -10 6 0 11 5 11 10 0 6 -2 10 -4 10 -3
0 -8 -4 -11 -10z"/>
<path d="M5183 2128 c-5 -7 -15 -43 -21 -79 -21 -119 -13 -159 31 -159 10 0
21 -9 24 -20 3 -11 9 -20 14 -20 5 0 9 -6 9 -13 0 -7 9 -23 20 -35 11 -12 20
-35 20 -52 0 -16 5 -30 11 -30 15 0 69 33 69 42 0 4 6 8 14 8 8 0 17 9 21 19
10 33 -6 70 -39 90 -31 20 -41 35 -117 180 -46 88 -44 85 -56 69z"/>
<path d="M12297 2027 c-3 -9 -2 -17 3 -17 6 0 10 -12 11 -27 l0 -28 10 24 c5
14 6 27 1 30 -5 3 -11 13 -14 20 -3 12 -6 12 -11 -2z"/>
<path d="M17180 2020 c-13 -8 -12 -10 3 -10 9 0 17 5 17 10 0 12 -1 12 -20 0z"/>
<path d="M12165 2009 c-4 -6 -5 -12 -2 -15 2 -3 7 2 10 11 7 17 1 20 -8 4z"/>
<path d="M12121 1994 c0 -11 3 -14 6 -6 3 7 2 16 -1 19 -3 4 -6 -2 -5 -13z"/>
<path d="M12175 1957 c-4 -10 -5 -21 -1 -24 10 -10 18 4 13 24 -4 17 -4 17
-12 0z"/>
<path d="M17180 1921 c0 -6 5 -13 10 -16 6 -3 10 1 10 9 0 9 -4 16 -10 16 -5
0 -10 -4 -10 -9z"/>
<path d="M17120 1906 c0 -9 5 -16 10 -16 6 0 10 4 10 9 0 6 -4 13 -10 16 -5 3
-10 -1 -10 -9z"/>
<path d="M10944 1898 c-3 -5 -4 -19 -2 -32 4 -32 -39 -91 -82 -112 -34 -17
-171 -50 -257 -61 -24 -3 -43 -9 -43 -14 0 -5 -7 -9 -15 -9 -27 0 -63 -22 -73
-45 -10 -21 -8 -23 36 -29 25 -3 89 -9 143 -12 78 -6 102 -4 129 10 18 9 41
16 50 16 10 0 34 7 53 15 20 8 52 15 71 15 46 0 61 -26 51 -89 -4 -25 -8 -68
-9 -96 -3 -72 -3 -71 -40 -107 -35 -35 -60 -95 -50 -121 8 -21 27 -27 68 -20
35 5 35 6 29 49 -3 25 -1 49 5 56 20 25 71 124 91 179 22 58 67 107 180 197
43 34 49 42 32 42 -12 0 -20 4 -16 9 3 5 1 12 -5 16 -5 3 -10 14 -10 24 0 24
-27 46 -59 47 -14 1 -46 9 -71 17 -108 38 -201 63 -206 55z"/>
<path d="M11518 1874 c-36 -19 -35 -31 2 -39 32 -7 39 -19 15 -29 -8 -3 -15
-12 -15 -21 0 -8 -7 -15 -16 -15 -21 0 -12 -22 15 -36 12 -6 27 -19 34 -29 12
-15 14 -15 26 -1 7 9 17 13 22 11 8 -5 39 45 39 63 0 5 -10 14 -22 20 -22 10
-21 11 9 11 17 1 35 -3 38 -9 3 -5 14 -10 23 -10 21 0 72 -43 72 -59 0 -7 -3
-11 -7 -9 -5 2 -21 10 -38 18 -16 8 -33 18 -36 23 -3 4 -12 1 -19 -8 -11 -13
-7 -17 23 -30 20 -8 41 -15 46 -15 5 0 19 -13 31 -30 12 -16 28 -30 36 -30 8
0 18 -8 21 -17 4 -10 21 -33 38 -52 28 -29 35 -32 53 -22 17 9 23 8 36 -10 11
-16 21 -20 40 -15 22 5 28 2 36 -20 8 -21 13 -24 25 -14 11 10 16 6 24 -22 l9
-33 2 35 c1 19 4 47 6 62 6 36 -26 64 -92 84 -28 8 -60 23 -72 34 -12 11 -27
20 -33 20 -7 0 -9 3 -6 7 4 3 0 14 -8 23 -12 14 -13 23 -5 45 16 41 5 62 -36
70 -38 7 -58 0 -30 -11 26 -10 18 -24 -14 -24 -16 0 -30 4 -30 9 0 5 -21 12
-47 16 -48 7 -95 26 -143 57 -22 15 -28 15 -52 2z m382 -249 c0 -8 -4 -15 -10
-15 -5 0 -7 7 -4 15 4 8 8 15 10 15 2 0 4 -7 4 -15z"/>
<path d="M16340 1859 c-7 -11 -14 -18 -17 -15 -3 3 -17 -16 -31 -42 -13 -26
-30 -54 -37 -62 -17 -19 -56 -121 -50 -130 6 -10 -57 -55 -79 -55 -11 0 -21
-6 -23 -12 -3 -8 4 -13 16 -13 23 0 28 -19 10 -37 -7 -7 0 -13 27 -18 28 -5
40 -3 43 7 7 21 103 203 110 208 15 11 70 160 65 174 -8 22 -21 20 -34 -5z"/>
<path d="M17185 1840 c3 -5 12 -7 20 -3 21 7 19 13 -6 13 -11 0 -18 -4 -14
-10z"/>
<path d="M17150 1778 c0 -20 1 -21 20 -3 11 10 20 20 20 22 0 1 -9 3 -20 3
-14 0 -20 -7 -20 -22z"/>
<path d="M15321 1674 c-1 -18 -10 -39 -21 -49 -29 -26 -22 -59 12 -63 18 -2
31 3 39 16 7 11 19 18 26 15 7 -3 13 2 13 11 0 9 -11 21 -25 26 -15 6 -28 21
-34 42 l-9 33 -1 -31z"/>
<path d="M11468 1678 c8 -8 17 -8 34 0 22 10 21 11 -11 11 -27 1 -32 -2 -23
-11z"/>
<path d="M11430 1602 c0 -5 -27 -36 -59 -69 -41 -41 -75 -66 -109 -78 -70 -26
-80 -35 -105 -109 -13 -36 -31 -74 -40 -84 -19 -21 -22 -42 -7 -42 6 0 10 4
10 9 0 5 30 32 68 59 37 27 87 75 112 105 50 62 86 84 154 93 36 5 46 11 46
25 0 11 -4 19 -9 19 -5 0 -11 18 -15 40 -5 31 -11 40 -26 40 -11 0 -20 -4 -20
-8z"/>
<path d="M16608 1503 c-10 -2 -18 -9 -18 -15 0 -5 -11 -19 -25 -30 -14 -11
-25 -24 -25 -30 0 -6 -8 -20 -17 -30 -16 -18 -16 -21 -1 -49 17 -28 16 -31 -7
-64 -50 -75 -152 -175 -177 -175 -10 0 -18 -4 -18 -10 0 -5 -22 -10 -49 -10
-67 0 -109 -10 -115 -26 -4 -11 -1 -12 12 -5 24 13 50 -9 58 -48 6 -26 1 -39
-25 -71 -36 -44 -39 -60 -13 -60 18 0 52 29 52 43 0 4 11 25 25 47 27 43 60
62 174 100 62 21 84 35 138 87 60 59 74 85 54 97 -20 13 21 116 46 116 20 0
15 41 -11 90 -25 46 -30 50 -58 43z"/>
<path d="M15188 1422 c-23 -107 -28 -170 -14 -181 6 -5 27 -9 45 -9 l33 1 -7
81 c-8 101 -20 165 -32 177 -5 5 -15 -23 -25 -69z"/>
<path d="M11516 1477 c3 -10 9 -15 12 -12 3 3 0 11 -7 18 -10 9 -11 8 -5 -6z"/>
<path d="M15340 1450 c8 -5 23 -7 32 -4 13 4 20 -5 29 -38 10 -36 13 -40 20
-23 10 27 10 27 -6 49 -8 11 -30 20 -52 22 -28 3 -34 2 -23 -6z"/>
<path d="M11419 1403 c-6 -7 -16 -13 -21 -13 -13 0 -38 -26 -38 -40 0 -8 8
-10 23 -6 12 3 29 6 38 6 14 0 39 38 39 59 0 13 -29 9 -41 -6z"/>
<path d="M11650 1396 c0 -14 5 -26 10 -26 6 0 10 9 10 19 0 11 -4 23 -10 26
-6 4 -10 -5 -10 -19z"/>
<path d="M11680 1373 c1 -35 2 -36 15 -20 13 18 14 18 17 -3 4 -28 22 -31 26
-3 3 20 -31 63 -50 63 -4 0 -8 -17 -8 -37z"/>
<path d="M15280 1391 c0 -10 8 -25 17 -32 15 -12 16 -12 10 4 -4 10 -7 25 -7
33 0 8 -4 14 -10 14 -5 0 -10 -8 -10 -19z"/>
<path d="M17105 1380 c-3 -5 1 -10 10 -10 9 0 13 5 10 10 -3 6 -8 10 -10 10
-2 0 -7 -4 -10 -10z"/>
<path d="M16258 1324 c0 -10 -1 -25 -1 -32 1 -7 -5 -11 -12 -8 -8 3 -28 -8
-46 -25 -25 -23 -28 -29 -13 -29 24 0 87 22 105 36 8 6 22 14 32 17 18 7 24
27 7 27 -5 0 -10 -5 -10 -12 0 -6 -13 1 -30 17 -27 26 -30 27 -32 9z"/>
<path d="M11310 1241 c0 -6 4 -13 10 -16 6 -3 7 1 4 9 -7 18 -14 21 -14 7z"/>
<path d="M11900 1220 c0 -5 5 -10 10 -10 6 0 10 5 10 10 0 6 -4 10 -10 10 -5
0 -10 -4 -10 -10z"/>
<path d="M16037 1224 c-6 -7 -24 -9 -94 -12 -33 -2 -48 -28 -48 -82 0 -20 4
-25 23 -23 30 4 122 49 154 76 21 18 23 24 12 35 -14 13 -37 16 -47 6z"/>
<path d="M11334 1200 c-21 -8 -65 -49 -138 -129 -29 -32 -44 -41 -64 -39 -24
3 -26 0 -27 -44 0 -27 0 -48 0 -48 13 2 154 65 165 74 31 26 132 66 170 68 22
1 40 5 40 10 0 4 -6 8 -14 8 -7 0 -20 8 -27 17 -9 11 -10 14 -2 9 9 -5 11 -2
7 8 -3 9 -10 14 -14 11 -5 -3 -24 10 -42 29 -26 26 -37 32 -54 26z"/>
<path d="M15230 1189 c7 -11 14 -18 17 -15 8 8 -5 36 -17 36 -7 0 -7 -6 0 -21z"/>
<path d="M11043 1169 c2 -9 -4 -21 -14 -27 -11 -7 -22 -29 -25 -52 -4 -24 -12
-40 -20 -40 -18 0 -18 -24 1 -40 21 -18 32 -6 45 52 7 29 23 67 36 85 30 40
30 41 -2 39 -18 -1 -24 -6 -21 -17z"/>
<path d="M15187 1176 c-6 -16 2 -28 14 -20 12 7 11 34 0 34 -5 0 -11 -6 -14
-14z"/>
<path d="M16975 1180 c3 -5 8 -10 11 -10 2 0 4 5 4 10 0 6 -5 10 -11 10 -5 0
-7 -4 -4 -10z"/>
<path d="M13200 1101 c0 -28 4 -51 9 -51 5 0 12 -15 16 -32 4 -18 15 -55 24
-83 10 -27 16 -56 14 -62 -13 -35 64 -57 102 -30 19 15 13 37 -11 37 -8 0 -14
7 -14 15 0 18 -42 109 -52 113 -5 2 -8 9 -8 16 0 6 -9 19 -20 28 -11 10 -23
30 -26 45 -4 15 -13 34 -21 41 -11 11 -13 5 -13 -37z"/>
<path d="M12088 1133 c7 -3 16 -2 19 1 4 3 -2 6 -13 5 -11 0 -14 -3 -6 -6z"/>
<path d="M12053 1095 c-24 -17 -31 -45 -12 -45 17 0 41 29 37 45 -3 14 -6 14
-25 0z"/>
<path d="M11492 1080 c0 -14 2 -19 5 -12 2 6 2 18 0 25 -3 6 -5 1 -5 -13z"/>
<path d="M11510 1081 c0 -21 13 -40 22 -35 6 4 14 0 19 -7 7 -12 9 -11 9 1 0
13 2 13 9 1 5 -8 16 -16 24 -17 8 -1 27 -5 43 -8 49 -10 61 8 20 32 -57 34
-146 54 -146 33z"/>
<path d="M12322 1005 c0 -55 3 -65 17 -65 24 0 54 56 47 86 -5 19 -3 24 14 24
11 0 20 5 20 10 0 6 -22 10 -49 10 l-48 0 -1 -65z"/>
<path d="M15713 1045 c-18 -8 -33 -19 -33 -25 0 -15 46 -12 60 5 20 25 7 34
-27 20z"/>
<path d="M12072 1030 c0 -14 2 -19 5 -12 2 6 2 18 0 25 -3 6 -5 1 -5 -13z"/>
<path d="M15620 1038 c0 -29 12 -48 31 -48 13 0 19 7 18 23 0 13 -3 16 -6 8
-4 -11 -10 -8 -24 10 -14 19 -19 20 -19 7z"/>
<path d="M15588 1025 c-7 -8 14 -55 25 -55 9 0 -1 40 -12 53 -4 4 -10 5 -13 2z"/>
<path d="M16080 1002 c0 -5 -18 -18 -40 -31 -22 -12 -40 -26 -40 -32 0 -23 76
9 89 38 14 29 14 33 1 33 -5 0 -10 -4 -10 -8z"/>
<path d="M15500 979 c0 -13 25 -39 39 -39 13 0 32 35 24 44 -3 3 -13 0 -21 -7
-12 -9 -16 -9 -19 1 -6 15 -23 16 -23 1z"/>
<path d="M15410 955 c0 -8 6 -15 14 -15 8 0 16 -4 18 -9 4 -12 58 -2 58 11 0
5 -13 7 -29 3 -21 -4 -30 -2 -34 9 -8 20 -27 21 -27 1z"/>
<path d="M12592 893 c3 -42 28 -59 28 -20 0 32 -9 57 -22 57 -5 0 -8 -17 -6
-37z"/>
<path d="M15370 910 c0 -6 -4 -9 -9 -6 -5 4 -22 1 -37 -4 -19 -8 -24 -14 -17
-21 8 -8 22 -7 47 2 37 13 44 23 26 34 -5 3 -10 1 -10 -5z"/>
<path d="M15946 912 c-4 -6 -27 -20 -51 -31 -27 -12 -49 -31 -59 -49 -20 -39
-4 -37 47 3 70 55 79 64 75 77 -3 9 -6 9 -12 0z"/>
<path d="M15240 888 c0 -8 7 -23 15 -34 14 -19 14 -19 15 2 0 12 -7 27 -15 34
-12 10 -15 10 -15 -2z"/>
<path d="M13909 853 c-1 -21 -3 -50 -4 -65 -3 -23 2 -29 36 -42 41 -17 89 -21
89 -8 -1 4 -7 18 -15 32 -8 14 -14 40 -15 58 0 17 -3 31 -7 31 -25 -4 -43 3
-43 16 0 8 -9 15 -20 15 -16 0 -20 -7 -21 -37z m24 -38 c4 -8 2 -17 -3 -20 -6
-4 -10 3 -10 14 0 25 6 27 13 6z"/>
<path d="M16860 855 c0 -8 5 -15 10 -15 6 0 10 7 10 15 0 8 -4 15 -10 15 -5 0
-10 -7 -10 -15z"/>
<path d="M15200 844 c0 -13 18 -39 24 -34 2 3 -2 14 -10 24 -8 11 -14 16 -14
10z"/>
<path d="M15615 825 c-27 -13 -53 -24 -57 -25 -4 0 -19 -5 -35 -11 -42 -16
-12 -27 63 -24 35 1 66 4 67 6 18 24 37 60 37 69 0 15 -20 11 -75 -15z"/>
<path d="M15105 832 c-11 -4 -31 -15 -45 -24 -28 -20 -20 -33 27 -41 24 -5 37
-1 58 18 14 14 30 25 35 25 5 0 7 7 4 15 -6 15 -42 18 -79 7z"/>
<path d="M11338 803 c-32 -8 -19 -20 34 -31 64 -12 77 -7 44 19 -24 18 -43 21
-78 12z"/>
<path d="M10321 771 c-17 -17 -31 -36 -31 -42 0 -5 -22 -37 -49 -72 -53 -68
-67 -102 -76 -192 -4 -33 -13 -98 -21 -144 -8 -46 -14 -137 -14 -202 l0 -119
288 1 c158 1 279 3 270 6 -24 6 -22 18 6 41 13 10 26 32 29 48 2 16 5 1 6 -33
0 -35 6 -63 11 -63 6 0 10 6 10 13 1 81 15 234 30 322 11 61 27 155 37 210 9
55 17 118 17 140 1 45 6 43 -164 71 -334 54 -312 53 -349 15z"/>
<path d="M11150 753 c0 -17 5 -35 10 -38 6 -3 10 -2 10 2 0 5 23 17 51 28 77
30 77 40 -2 40 l-69 0 0 -32z"/>
<path d="M16065 761 c-4 -8 -1 -19 8 -28 19 -20 30 -1 13 22 -10 14 -15 15
-21 6z"/>
<path d="M15338 753 c7 -3 16 -2 19 1 4 3 -2 6 -13 5 -11 0 -14 -3 -6 -6z"/>
<path d="M15000 729 c0 -11 4 -18 10 -14 5 3 7 12 3 20 -7 21 -13 19 -13 -6z"/>
<path d="M15226 735 c-22 -8 -43 -12 -47 -9 -4 2 -26 -6 -48 -18 -49 -26 -110
-103 -136 -170 -10 -27 -21 -48 -25 -48 -4 0 -10 -15 -13 -34 -6 -36 1 -76 12
-76 9 0 41 81 41 103 0 18 33 58 111 138 34 35 150 109 169 109 5 0 12 5 15
10 9 14 -33 12 -79 -5z"/>
<path d="M11567 734 c-12 -13 -8 -22 14 -27 15 -4 19 -1 17 10 -3 18 -21 27
-31 17z"/>
<path d="M13046 731 c-4 -5 3 -7 14 -4 23 6 26 13 6 13 -8 0 -17 -4 -20 -9z"/>
<path d="M15820 720 c-11 -11 -22 -32 -26 -47 -3 -16 -9 -41 -13 -58 -14 -58
-2 -165 19 -165 5 0 12 21 16 48 7 52 23 91 24 59 0 -10 5 -15 10 -12 6 3 10
48 10 101 0 98 -5 109 -40 74z"/>
<path d="M11667 664 c-6 -7 24 -44 35 -44 5 0 8 7 8 15 0 15 -34 38 -43 29z"/>
<path d="M14505 637 c-52 -29 -134 -115 -165 -174 -13 -27 -27 -50 -31 -53
-15 -12 -69 -140 -69 -164 0 -15 -6 -37 -14 -49 -8 -12 -17 -61 -20 -109 l-7
-88 67 0 c59 0 65 2 59 18 -6 15 -16 98 -17 142 -2 101 73 268 162 363 59 64
87 78 193 101 38 9 34 22 -10 30 -64 10 -106 5 -148 -17z"/>
<path d="M11640 640 c0 -22 16 -43 30 -38 8 2 5 11 -9 28 -14 17 -20 20 -21
10z"/>
<path d="M16590 580 c0 -5 5 -10 11 -10 5 0 7 5 4 10 -3 6 -8 10 -11 10 -2 0
-4 -4 -4 -10z"/>
<path d="M16675 560 c3 -5 10 -10 16 -10 5 0 9 5 9 10 0 6 -7 10 -16 10 -8 0
-12 -4 -9 -10z"/>
<path d="M12048 379 c-16 -16 -28 -34 -28 -39 0 -6 -4 -10 -8 -10 -13 0 -72
-105 -72 -128 0 -13 -6 -22 -16 -22 -8 0 -13 -4 -9 -10 9 -15 67 17 71 39 3
20 18 41 29 41 7 0 28 18 45 40 17 22 38 40 46 40 8 0 11 6 8 15 -4 10 0 15
12 15 16 1 15 5 -9 25 -15 14 -31 25 -35 24 -4 0 -19 -14 -34 -30z"/>
<path d="M15790 388 c0 -16 5 -28 10 -28 13 0 13 20 0 40 -8 12 -10 9 -10 -12z"/>
<path d="M16420 346 c0 -9 5 -16 10 -16 6 0 10 4 10 9 0 6 -4 13 -10 16 -5 3
-10 -1 -10 -9z"/>
<path d="M12737 209 c-16 -4 -35 -13 -42 -19 -12 -10 -11 -15 6 -33 18 -19 18
-22 4 -25 -9 -2 -27 3 -40 12 -32 21 -38 20 -30 -4 6 -18 2 -20 -32 -20 -35 0
-36 -1 -18 -14 26 -18 158 -43 265 -51 47 -3 97 -8 113 -11 23 -5 27 -2 27 16
0 11 -7 34 -15 50 -12 23 -25 31 -55 36 -22 4 -40 11 -40 16 0 6 -6 8 -14 5
-8 -3 -17 1 -20 9 -3 8 -15 14 -26 14 -11 0 -20 4 -20 9 0 13 -32 18 -63 10z"/>
<path d="M92 90 c-19 -4 -39 -13 -45 -19 -6 -6 -19 -11 -29 -11 -13 0 -18 -8
-18 -30 l0 -30 80 0 c74 0 80 1 80 21 0 11 -10 29 -22 40 -20 16 -21 20 -8 29
17 11 9 11 -38 0z"/>
<path d="M5007 43 c-17 -16 -6 -43 17 -43 19 0 22 4 18 25 -4 24 -21 33 -35
18z"/>
</g>
</svg>
